<svg xmlns="http://www.w3.org/2000/svg" xmlns:xlink="http://www.w3.org/1999/xlink" width="1440" height="697.654" viewBox="0 0 1440 697.654"><defs><style>.a{opacity:0.997;fill:url(#a);}</style><linearGradient id="a" x1="0.783" y1="0.525" x2="0.109" y2="0.528" gradientUnits="objectBoundingBox"><stop offset="0" stop-color="#09b0b7" stop-opacity="0.71"/><stop offset="0.35" stop-color="#06777c" stop-opacity="0.725"/><stop offset="0.591" stop-color="#056165" stop-opacity="0.929"/><stop offset="1" stop-color="#05585c"/></linearGradient></defs><path class="a" d="M-18070,4258.652h-1440V3561h671.035l-.012.033-.006.011a.11.11,0,0,1-.008.023.094.094,0,0,1-.008.021,35.167,35.167,0,0,1,18.479,7.54,62.547,62.547,0,0,1,14.191,16.594c1.016,1.6,2.041,3.3,3.426,5.69.668,1.153,2.779,4.84,3.061,5.337a62.415,62.415,0,0,0,5.381,8.3c1.723,2.1,3.207,3.114,4.535,3.114,1.359,0,2.877-1.067,4.637-3.261a64.2,64.2,0,0,0,5.287-8.275c.242-.421,2.879-5.062,3-5.279,1.293-2.237,2.33-3.97,3.363-5.621a62.229,62.229,0,0,1,14.117-16.6,35.042,35.042,0,0,1,18.449-7.545c-.006-.016-.012-.032-.016-.046a.067.067,0,0,1-.008-.018c0-.007-.006-.013-.01-.02h671.1V4258.65h0Z" transform="translate(19510 -3560.999)"/></svg>