<svg xmlns="http://www.w3.org/2000/svg" xmlns:xlink="http://www.w3.org/1999/xlink" width="1440" height="770.659" viewBox="0 0 1440 770.659"><defs><style>.a{fill:url(#a);}</style><linearGradient id="a" x1="0.5" x2="0.5" y2="1" gradientUnits="objectBoundingBox"><stop offset="0" stop-color="#a3e7ea"/><stop offset="1" stop-color="#ddf6f7"/></linearGradient></defs><path class="a" d="M-18677.889,4966.658c-1.328,0-2.812-1.018-4.537-3.11a61.883,61.883,0,0,1-5.379-8.3c-.059-.1-.184-.318-.352-.61l-.365-.64c-.687-1.2-1.879-3.282-2.348-4.085-1.324-2.288-2.381-4.043-3.426-5.691a62.626,62.626,0,0,0-14.186-16.591,35.256,35.256,0,0,0-18.484-7.545c.006-.015.012-.029.016-.042s.006-.016.008-.023a.072.072,0,0,1,.008-.018H-19398V4196h671.068c-.01.029-.023.059-.033.087a35.207,35.207,0,0,1,18.484,7.542,62.553,62.553,0,0,1,14.186,16.6c1.055,1.664,2.111,3.419,3.426,5.691.545.936,1.994,3.464,2.424,4.217l.141.243c.244.424.426.743.5.872a62.035,62.035,0,0,0,5.379,8.3c1.721,2.1,3.205,3.116,4.537,3.116,1.354,0,2.869-1.067,4.635-3.262a64.349,64.349,0,0,0,5.289-8.276c.084-.15.467-.823.939-1.652l.725-1.271c.6-1.052,1.088-1.908,1.338-2.349,1.293-2.241,2.33-3.977,3.363-5.628a62.161,62.161,0,0,1,14.113-16.6,35.053,35.053,0,0,1,18.451-7.546.168.168,0,0,0-.016-.039l-.016-.044H-17958v724h-671.064a.4.4,0,0,0,.014.038c0,.012.01.026.016.041a35.089,35.089,0,0,0-18.451,7.546,62.257,62.257,0,0,0-14.113,16.6c-1.021,1.625-2.059,3.359-3.363,5.623-.3.531-.918,1.61-1.514,2.658-.705,1.244-1.373,2.417-1.488,2.62a64.737,64.737,0,0,1-5.289,8.271C-18675.018,4965.591-18676.533,4966.658-18677.889,4966.658Z" transform="translate(19398 -4195.999)"/></svg>
