<svg xmlns="http://www.w3.org/2000/svg" width="94.908" height="84.5" viewBox="0 0 94.908 84.5"><defs><style>.a{fill:#05585c;}</style></defs><g transform="translate(-2.515 -7.8)"><path class="a" d="M42.6,68.3a10.564,10.564,0,0,1,.6-1.9c-3.6.6-8,1-9.8.4-1-.5-3.4-3.2-4.8-4.6-1.3-1.4-2.4-2.6-3.5-3.7-2-1.9-3.4-3.3-6.2-3.9-3.4-1-11.9-1.9-14.3,3.7-2.5,5.9-2.1,21.3-2,32.3a1.605,1.605,0,0,0,1.6,1.7H22.3a1.446,1.446,0,0,0,1.6-1.5c.1-.5.7-11,1-18.4A13.839,13.839,0,0,0,30.3,76a19.6,19.6,0,0,0,6.1.8,44.662,44.662,0,0,0,7.6-.7A10.561,10.561,0,0,1,42.6,68.3Z"/><circle class="a" cx="11" cy="11" r="11" transform="translate(4.1 29.2)"/><path class="a" d="M95.4,58.3c-2.4-5.6-10.9-4.6-14.3-3.8-2.8.7-4.3,2-6.2,4-1.1,1-2.3,2.3-3.6,3.7-1.3,1.5-3.8,4.2-4.8,4.6-2.4.8-9.1-.1-12.9-1a4.827,4.827,0,0,0-2.2,9.4,61.316,61.316,0,0,0,12,1.5,19.193,19.193,0,0,0,6.1-.8,15.94,15.94,0,0,0,5.4-3.6c.4,7.4,1,17.9,1,18.5a1.446,1.446,0,0,0,1.6,1.5H95.6a1.55,1.55,0,0,0,1.6-1.7C97.5,79.6,97.9,64.2,95.4,58.3Z"/><circle class="a" cx="11" cy="11" r="11" transform="translate(73.9 29.2)"/><path class="a" d="M50,18.9a2.582,2.582,0,0,0,2.6-2.6V10.4A2.582,2.582,0,0,0,50,7.8a2.647,2.647,0,0,0-2.6,2.6v5.9A2.582,2.582,0,0,0,50,18.9Z"/><path class="a" d="M37.5,20.3a2.772,2.772,0,0,0,2.3,1.3,2.2,2.2,0,0,0,1.3-.4,2.62,2.62,0,0,0,1-3.6l-2.9-5.1a2.642,2.642,0,1,0-4.6,2.6Z"/><path class="a" d="M58.9,21.3a3.259,3.259,0,0,0,1.3.4,2.772,2.772,0,0,0,2.3-1.3l2.9-5.1a2.642,2.642,0,1,0-4.6-2.6l-2.8,5A2.634,2.634,0,0,0,58.9,21.3Z"/><path class="a" d="M50,56.1A15.9,15.9,0,1,0,34.1,40.2,15.876,15.876,0,0,0,50,56.1ZM43.4,38.5a2.055,2.055,0,0,1,2.9.1l2.1,2.3,5.4-5.8a2.052,2.052,0,0,1,3,2.8l-6.9,7.4a2.127,2.127,0,0,1-1.5.7,1.8,1.8,0,0,1-1.5-.7l-3.6-3.9A1.97,1.97,0,0,1,43.4,38.5Z"/></g></svg>