<svg xmlns="http://www.w3.org/2000/svg" width="115" height="70" viewBox="0 0 115 70"><defs><style>.a{fill:#05585c;}.b{fill:#fff;}</style></defs><g transform="translate(-0.5 -15)"><path class="a" d="M88.1,62.1V45H80.9a4.012,4.012,0,0,1-4-4V35.6H71.5a4.1,4.1,0,0,1-4.1-4.1V24.3H15.2a7.855,7.855,0,0,0-6.3,3.2c-.1.1-.2.4-.4.5L-.8,42l-5,.8a7.81,7.81,0,0,0-7.8,7.8V62a4.433,4.433,0,0,0-3.9,4.4V72a4.375,4.375,0,0,0,4.4,4.4h5.5A11.968,11.968,0,0,0,3.9,85a11.85,11.85,0,0,0,11.5-8.6H57.6a11.989,11.989,0,0,0,23,0H87A4.375,4.375,0,0,0,91.4,72V66.4A4.327,4.327,0,0,0,88.1,62.1ZM4,79.1a6.152,6.152,0,0,1-6-6,6.017,6.017,0,0,1,6-6,6.152,6.152,0,0,1,6,6A6.083,6.083,0,0,1,4,79.1Zm65.1,0a6,6,0,0,1,0-12,6.152,6.152,0,0,1,6,6A6.017,6.017,0,0,1,69.1,79.1Zm19-54.8h9.4v7.2H88.1V41H80.9V31.6H71.5V24.4h9.4V15h7.2Z" transform="translate(18)"/><path class="b" d="M2,0H15.857a2,2,0,0,1,2,2V13a2,2,0,0,1-2,2H-4.2a2,2,0,0,1-2-2L0,2C.459,1.2.9,0,2,0Z" transform="translate(31 29)"/><rect class="b" width="24" height="15" rx="2" transform="translate(54 29)"/></g></svg>