<svg xmlns="http://www.w3.org/2000/svg" width="84.807" height="83.2" viewBox="0 0 84.807 83.2"><defs><style>.a{fill:#05585c;}</style></defs><g transform="translate(-2.5 -3.4)"><g transform="translate(2.5 3.4)"><path class="a" d="M48.888,60.3H41.478A2.686,2.686,0,0,0,38.8,62.978v4.553a2.686,2.686,0,0,0,2.678,2.678h7.409a2.686,2.686,0,0,0,2.678-2.678V62.978A2.746,2.746,0,0,0,48.888,60.3Z" transform="translate(-6.395 -9.505)"/><path class="a" d="M27.488,60.3H20.078A2.686,2.686,0,0,0,17.4,62.978v4.553a2.686,2.686,0,0,0,2.678,2.678h7.409a2.686,2.686,0,0,0,2.678-2.678V62.978A2.746,2.746,0,0,0,27.488,60.3Z" transform="translate(-4.099 -9.505)"/><path class="a" d="M48.888,41.6H41.478A2.686,2.686,0,0,0,38.8,44.278v4.553a2.686,2.686,0,0,0,2.678,2.678h7.409a2.686,2.686,0,0,0,2.678-2.678V44.278A2.746,2.746,0,0,0,48.888,41.6Z" transform="translate(-6.395 -7.499)"/><path class="a" d="M27.488,41.6H20.078A2.686,2.686,0,0,0,17.4,44.278v4.553a2.686,2.686,0,0,0,2.678,2.678h7.409a2.686,2.686,0,0,0,2.678-2.678V44.278A2.746,2.746,0,0,0,27.488,41.6Z" transform="translate(-4.099 -7.499)"/><path class="a" d="M70.288,41.6H62.878A2.686,2.686,0,0,0,60.2,44.278v4.553a2.686,2.686,0,0,0,2.678,2.678h7.409a2.686,2.686,0,0,0,2.678-2.678V44.278A2.746,2.746,0,0,0,70.288,41.6Z" transform="translate(-8.691 -7.499)"/><path class="a" d="M80.076,55V19.558a8.925,8.925,0,0,0-2.321-5.981v-.089h-.089a9.112,9.112,0,0,0-6.785-3.035h-6.7V6.435A3.01,3.01,0,0,0,61.151,3.4H56.6a3.01,3.01,0,0,0-3.035,3.035v4.017H28.924V6.435A3.01,3.01,0,0,0,25.889,3.4H21.336A3.01,3.01,0,0,0,18.3,6.435v4.017h-6.7a9.112,9.112,0,0,0-6.785,3.035h0v.089A8.925,8.925,0,0,0,2.5,19.558V68.21a9.144,9.144,0,0,0,9.106,9.106h42.76A17.48,17.48,0,1,0,80.076,55ZM52.313,69.1a17.335,17.335,0,0,0,.179,2.142H11.606A3.01,3.01,0,0,1,8.57,68.21V31.074H73.916V52.142a15.7,15.7,0,0,0-4.106-.536A17.525,17.525,0,0,0,52.313,69.1Zm24.728-1.785L69.81,75.084a2.371,2.371,0,0,1-3.392,0l-4.285-4.642a2.273,2.273,0,1,1,3.3-3.124l2.678,2.857,5.535-5.981a2.265,2.265,0,0,1,3.214-.089A2.2,2.2,0,0,1,77.041,67.318Z" transform="translate(-2.5 -3.4)"/></g></g></svg>