<svg xmlns="http://www.w3.org/2000/svg" width="61.048" height="85.514" viewBox="0 0 61.048 85.514"><defs><style>.a{fill:#05585c;}</style></defs><g transform="translate(-21.492 -7.425)"><path class="a" d="M38.462,89.2a105.513,105.513,0,0,0,11.3.652h.13c1.169,0,2.339-.035,3.509-.079A18.825,18.825,0,0,1,76.749,62.4c-.273-1.5-.571-3-.922-4.487A11.279,11.279,0,0,0,68.2,49.742L61.47,47.653a6.631,6.631,0,0,1-4.49-4.826A17.355,17.355,0,0,0,61.459,36.9a15.873,15.873,0,0,0,1.046-2.958,2.986,2.986,0,0,0,2.129-2.409l.582-3.824a2.988,2.988,0,0,0-1.353-2.962A7.087,7.087,0,0,0,60.619,14.06a9.136,9.136,0,0,0-14-5,10.127,10.127,0,0,0-8.482,2.08A10.4,10.4,0,0,0,36,24.495,2.987,2.987,0,0,0,34.16,27.7l.582,3.824a2.986,2.986,0,0,0,2.275,2.449,15.837,15.837,0,0,0,1.036,2.917,17.268,17.268,0,0,0,4.583,6.014,6.624,6.624,0,0,1-4.464,4.743l-6.725,2.089a11.283,11.283,0,0,0-7.632,8.176,91.179,91.179,0,0,0-2.063,12.839c-.372,4.139-.652,8.934,1.441,12.7C26.073,88.628,33.333,88.631,38.462,89.2Z"/><path class="a" d="M69.3,66.451A13.244,13.244,0,1,0,82.54,79.695,13.244,13.244,0,0,0,69.3,66.451ZM76.411,81.9H71.5V86.81a2.2,2.2,0,0,1-4.408,0V81.9H62.18a2.2,2.2,0,0,1,0-4.408h4.911V72.58a2.2,2.2,0,0,1,4.408,0v4.911H76.41a2.2,2.2,0,0,1,0,4.408Z"/></g></svg>