<?xml version="1.0" encoding="utf-8"?>
<!-- Generator: Adobe Illustrator 24.3.0, SVG Export Plug-In . SVG Version: 6.00 Build 0)  -->
<svg version="1.1" id="SketchValley" xmlns="http://www.w3.org/2000/svg" xmlns:xlink="http://www.w3.org/1999/xlink" x="0px"
	 y="0px" viewBox="0 0 1238.7 886.6" style="enable-background:new 0 0 1238.7 886.6;" xml:space="preserve">
<style type="text/css">
	.st0{fill:#034D50;}
	.st1{fill:#FFFFFF;}
	.st2{fill:#09B0B7;}
	.st3{fill:#A3E7EA;}
	.st4{opacity:0.4;}
	.st5{fill-opacity:0;}
	.st6{opacity:4.760000e-02;enable-background:new    ;}
	.st7{opacity:9.520000e-02;enable-background:new    ;}
	.st8{opacity:0.1429;enable-background:new    ;}
	.st9{opacity:0.1905;enable-background:new    ;}
	.st10{opacity:0.2381;enable-background:new    ;}
	.st11{opacity:0.2857;enable-background:new    ;}
	.st12{opacity:0.3333;enable-background:new    ;}
	.st13{opacity:0.381;enable-background:new    ;}
	.st14{opacity:0.4286;enable-background:new    ;}
	.st15{opacity:0.4762;enable-background:new    ;}
	.st16{opacity:0.5238;enable-background:new    ;}
	.st17{opacity:0.5714;enable-background:new    ;}
	.st18{opacity:0.619;enable-background:new    ;}
	.st19{opacity:0.6667;enable-background:new    ;}
	.st20{opacity:0.7143;enable-background:new    ;}
	.st21{opacity:0.7619;enable-background:new    ;}
	.st22{opacity:0.8095;enable-background:new    ;}
	.st23{opacity:0.8571;enable-background:new    ;}
	.st24{opacity:0.9048;enable-background:new    ;}
	.st25{opacity:0.9524;enable-background:new    ;}
	.st26{fill:#DCF7F6;}
	.st27{fill:#FEC23C;}
	.st28{fill:#84B4E1;}
	.st29{fill:#32BAA0;}
	.st30{fill:#F8B6BF;}
	.st31{fill:#BE2026;}
	.st32{fill:#A85024;}
	.st33{fill:#EFA41F;}
	.st34{fill:#E08431;}
	.st35{fill:#491113;}
	.st36{fill:#811D18;}
	.st37{fill:#9E4722;}
	.st38{fill:#C9812F;}
	.st39{fill:#D07E29;}
	.st40{fill:#F6B31F;}
	.st41{fill:none;stroke:#000000;stroke-miterlimit:10;}
	.st42{fill:#056165;}
	.st43{fill:#F04F51;}
	.st44{fill:#310F32;}
	.st45{fill:#FCBE4E;}
	.st46{fill:none;stroke:#034D50;stroke-width:0.5;stroke-miterlimit:10;}
	.st47{fill:#F5909D;}
	.st48{fill:#300F31;}
	.st49{fill:none;stroke:#F5909D;stroke-linecap:round;stroke-linejoin:round;stroke-miterlimit:10;}
	.st50{fill:#FFD888;}
	.st51{fill:#042036;}
	.st52{fill:#F9AC94;}
	.st53{fill:#EA7D61;}
	.st54{clip-path:url(#SVGID_2_);fill:#F26722;}
	.st55{clip-path:url(#SVGID_4_);fill:#F9AC94;}
	.st56{fill:#151744;}
	.st57{fill:#F9B19B;}
	.st58{fill:#EC866C;}
	.st59{fill:none;stroke:#000000;stroke-linecap:round;stroke-miterlimit:10;}
	.st60{fill:none;stroke:#CA6855;stroke-linecap:round;stroke-miterlimit:10;}
	.st61{clip-path:url(#SVGID_6_);}
	.st62{fill:#FFCF69;}
	.st63{fill:#CA7A29;}
</style>
<g>
	<path class="st0" d="M858.9,866.5H320.6v-651c0-41.1,33.3-74.4,74.4-74.4h389.4c41.1,0,74.4,33.3,74.4,74.4V866.5z"/>
	<path class="st1" d="M851.3,217.3v649.2H327.8V217.3c0-4.6,0.4-9.1,1.3-13.4c6.2-31.9,34.4-56.1,68.1-56.1h384.6
		c33.8,0,61.9,24.1,68.2,56.1C850.8,208.3,851.3,212.8,851.3,217.3z"/>
	<path class="st2" d="M850,203.9H329c6.2-31.9,34.4-56.1,68.1-56.1h384.6C815.6,147.9,843.7,172,850,203.9z"/>
	<circle class="st3" cx="492.3" cy="174.4" r="7.8"/>
	<circle class="st3" cx="686" cy="174.4" r="7.8"/>
	<path class="st3" d="M658,182.2H522.5c-4.3,0-7.8-3.5-7.8-7.8l0,0c0-4.3,3.5-7.8,7.8-7.8H658c4.3,0,7.8,3.5,7.8,7.8l0,0
		C665.8,178.7,662.3,182.2,658,182.2z"/>
	<g class="st4">
		<path class="st5" d="M876.7,539H423.2c-11.7,0-21.1-9.5-21.1-21.1V226c0-11.7,9.5-21.1,21.1-21.1h453.4c11.7,0,21.1,9.5,21.1,21.1
			v291.8C897.8,529.5,888.4,539,876.7,539z"/>
		<path class="st6" d="M873.8,537.1H426.1c-11.7,0-21.1-9.5-21.1-21.1v-288c0-11.7,9.5-21.1,21.1-21.1h447.8
			c11.7,0,21.1,9.5,21.1,21.1v288C895,527.6,885.5,537.1,873.8,537.1z"/>
		<path class="st7" d="M871,535.2H428.9c-11.7,0-21.1-9.5-21.1-21.1V229.9c0-11.7,9.5-21.1,21.1-21.1H871c11.7,0,21.1,9.5,21.1,21.1
			V514C892.2,525.7,882.7,535.2,871,535.2z"/>
		<path class="st8" d="M868.2,533.3H431.7c-11.7,0-21.1-9.5-21.1-21.1V231.8c0-11.7,9.5-21.1,21.1-21.1h436.4
			c11.7,0,21.1,9.5,21.1,21.1v280.4C889.3,523.8,879.9,533.3,868.2,533.3z"/>
		<path class="st9" d="M865.3,531.4H434.6c-11.7,0-21.1-9.5-21.1-21.1V233.7c0-11.7,9.5-21.1,21.1-21.1h430.8
			c11.7,0,21.1,9.5,21.1,21.1v276.6C886.5,521.9,877,531.4,865.3,531.4z"/>
		<path class="st10" d="M862.5,529.5H437.4c-11.7,0-21.1-9.5-21.1-21.1V235.6c0-11.7,9.5-21.1,21.1-21.1h425.1
			c11.7,0,21.1,9.5,21.1,21.1v272.7C883.7,520,874.2,529.5,862.5,529.5z"/>
		<path class="st11" d="M859.7,527.5H440.2c-11.7,0-21.1-9.5-21.1-21.1V237.5c0-11.7,9.5-21.1,21.1-21.1h419.4
			c11.7,0,21.1,9.5,21.1,21.1v268.9C880.8,518.1,871.4,527.5,859.7,527.5z"/>
		<path class="st12" d="M856.8,525.6H443.1c-11.7,0-21.1-9.5-21.1-21.1V239.4c0-11.7,9.5-21.1,21.1-21.1h413.8
			c11.7,0,21.1,9.5,21.1,21.1v265.1C878,516.2,868.5,525.6,856.8,525.6z"/>
		<path class="st13" d="M854,523.7H445.9c-11.7,0-21.1-9.5-21.1-21.1V241.3c0-11.7,9.5-21.1,21.1-21.1H854
			c11.7,0,21.1,9.5,21.1,21.1v261.3C875.2,514.3,865.7,523.7,854,523.7z"/>
		<path class="st14" d="M851.2,521.8H448.7c-11.7,0-21.1-9.5-21.1-21.1V243.2c0-11.7,9.5-21.1,21.1-21.1h402.5
			c11.7,0,21.1,9.5,21.1,21.1v257.5C872.3,512.4,862.9,521.8,851.2,521.8z"/>
		<path class="st15" d="M848.4,519.9H451.6c-11.7,0-21.1-9.5-21.1-21.1V245.1c0-11.7,9.5-21.1,21.1-21.1h396.8
			c11.7,0,21.1,9.5,21.1,21.1v253.6C869.5,510.5,860,519.9,848.4,519.9z"/>
		<path class="st16" d="M845.5,518H454.4c-11.7,0-21.1-9.5-21.1-21.1V247c0-11.7,9.5-21.1,21.1-21.1h391.1
			c11.7,0,21.1,9.5,21.1,21.1v249.8C866.7,508.5,857.2,518,845.5,518z"/>
		<path class="st17" d="M842.7,516.1H457.2c-11.7,0-21.1-9.5-21.1-21.1v-246c0-11.7,9.5-21.1,21.1-21.1h385.5
			c11.7,0,21.1,9.5,21.1,21.1v246C863.8,506.6,854.4,516.1,842.7,516.1z"/>
		<path class="st18" d="M839.9,514.2H460.1c-11.7,0-21.1-9.5-21.1-21.1V250.9c0-11.7,9.5-21.1,21.1-21.1h379.8
			c11.7,0,21.1,9.5,21.1,21.1V493C861,504.7,851.5,514.2,839.9,514.2z"/>
		<path class="st19" d="M837,512.3H462.9c-11.7,0-21.1-9.5-21.1-21.1V252.8c0-11.7,9.5-21.1,21.1-21.1H837
			c11.7,0,21.1,9.5,21.1,21.1v238.4C858.2,502.8,848.7,512.3,837,512.3z"/>
		<path class="st20" d="M834.2,510.4H465.7c-11.7,0-21.1-9.5-21.1-21.1V254.7c0-11.7,9.5-21.1,21.1-21.1h368.5
			c11.7,0,21.1,9.5,21.1,21.1v234.5C855.3,500.9,845.9,510.4,834.2,510.4z"/>
		<path class="st21" d="M831.4,508.5H468.6c-11.7,0-21.1-9.5-21.1-21.1V256.6c0-11.7,9.5-21.1,21.1-21.1h362.8
			c11.7,0,21.1,9.5,21.1,21.1v230.7C852.5,499,843,508.5,831.4,508.5z"/>
		<path class="st22" d="M828.5,506.5H471.4c-11.7,0-21.1-9.5-21.1-21.1V258.5c0-11.7,9.5-21.1,21.1-21.1h357.1
			c11.7,0,21.1,9.5,21.1,21.1v226.9C849.7,497.1,840.2,506.5,828.5,506.5z"/>
		<path class="st23" d="M825.7,504.6H474.2c-11.7,0-21.1-9.5-21.1-21.1V260.4c0-11.7,9.5-21.1,21.1-21.1h351.5
			c11.7,0,21.1,9.5,21.1,21.1v223.1C846.8,495.2,837.4,504.6,825.7,504.6z"/>
		<path class="st24" d="M822.9,502.7H477.1c-11.7,0-21.1-9.5-21.1-21.1V262.3c0-11.7,9.5-21.1,21.1-21.1h345.8
			c11.7,0,21.1,9.5,21.1,21.1v219.3C844,493.3,834.5,502.7,822.9,502.7z"/>
		<path class="st25" d="M820,500.8H479.9c-11.7,0-21.1-9.5-21.1-21.1V264.2c0-11.7,9.5-21.1,21.1-21.1H820
			c11.7,0,21.1,9.5,21.1,21.1v215.5C841.2,491.4,831.7,500.8,820,500.8z"/>
		<path d="M817.2,498.9H482.7c-11.7,0-21.1-9.5-21.1-21.1V266.1c0-11.7,9.5-21.1,21.1-21.1h334.5c11.7,0,21.1,9.5,21.1,21.1v211.6
			C838.3,489.5,828.9,498.9,817.2,498.9z"/>
	</g>
	<path class="st1" d="M863.8,524.3H434.3c-11.7,0-21.1-9.5-21.1-21.1V233.8c0-11.7,9.5-21.1,21.1-21.1h429.5
		c11.7,0,21.1,9.5,21.1,21.1v269.3C884.9,514.8,875.4,524.3,863.8,524.3z"/>
	<path class="st26" d="M843.2,503.8H448.5c-7,0-12.7-5.7-12.7-12.7V278.3c0-7,5.7-12.7,12.7-12.7h394.6c7,0,12.7,5.7,12.7,12.7
		v212.8C855.9,498.1,850.2,503.8,843.2,503.8z"/>
	<circle class="st27" cx="441.3" cy="230.5" r="4.4"/>
	<circle class="st28" cx="454.5" cy="230.5" r="4.4"/>
	<circle class="st29" cx="467.8" cy="230.5" r="4.4"/>
	<path class="st3" d="M850.2,255.3H442.6c-3.1,0-5.7-2.6-5.7-5.7l0,0c0-3.1,2.5-5.7,5.7-5.7h407.6c3.2,0,5.7,2.6,5.7,5.7l0,0
		C855.9,252.8,853.3,255.3,850.2,255.3z"/>
	<g>
		<path class="st3" d="M1209.9,4.9h-155.2c-7.4,0-13.4,6-13.4,13.4v75.2c0,7.4,6,13.4,13.4,13.4h16.1l17.7,14.1
			c1.2,0.9,2.8,0.1,2.8-1.4v-12.7h118.6c7.4,0,13.4-6,13.4-13.4V18.3C1223.3,10.9,1217.3,4.9,1209.9,4.9z"/>
		<path class="st1" d="M1123.3,33.9h-52.6c-1.9,0-3.4-1.5-3.4-3.4l0,0c0-1.9,1.5-3.4,3.4-3.4h52.6c1.9,0,3.4,1.5,3.4,3.4l0,0
			C1126.7,32.4,1125.2,33.9,1123.3,33.9z"/>
		<path class="st1" d="M1191.8,51.2h-121c-1.9,0-3.4-1.5-3.4-3.4l0,0c0-1.9,1.5-3.4,3.4-3.4h121c1.9,0,3.4,1.5,3.4,3.4l0,0
			C1195.2,49.7,1193.7,51.2,1191.8,51.2z"/>
		<path class="st1" d="M1191.8,68.5h-121c-1.9,0-3.4-1.5-3.4-3.4l0,0c0-1.9,1.5-3.4,3.4-3.4h121c1.9,0,3.4,1.5,3.4,3.4l0,0
			C1195.2,67,1193.7,68.5,1191.8,68.5z"/>
	</g>
	<path class="st30" d="M700.1,761.7l-54.6,47.9l-4.1-3.6l6.3-6c-8-1-8.7-10.9-9.4-14.4c-0.7-3.5-12.6-12.9-12.6-12.9l19.8-13.1
		c6,13.8,15.7,10.4,15.7,10.4l-1.7-3.2c0,0,26.1-8.7,33.4-9.7C700.1,756.1,700.1,761.7,700.1,761.7z"/>
	<path class="st31" d="M700.1,761.7l-54.6,47.9l-4.1-3.6l6.3-6l22.5-19.5l-9-10.5l-1.7-3.2c0,0,26.1-8.7,33.4-9.7
		C700.1,756.1,700.1,761.7,700.1,761.7z"/>
	<path class="st30" d="M623,862.9h-73.6V859h8.5c-1.9-4.2-1.1-5.1,1-13.6c2.2-8.5-7.2-15.8-7.2-15.8l23.7-4.7c0,0,1.6,1.4,4.5,10.6
		c2.9,9.2,7.9,9,7.9,9v-3.4c0,0,31.6,14.4,35.2,17C626.5,860.6,623,862.9,623,862.9z"/>
	<path class="st31" d="M623,862.9h-73.6V859h8.5l29.9-0.4v-17.5c0,0,31.6,14.4,35.2,17C626.5,860.6,623,862.9,623,862.9z"/>
	<polygon class="st32" points="711.4,866.6 732.8,866.6 750.4,811.8 729,811.8 	"/>
	<polygon class="st32" points="836.2,811.8 854.8,866.6 875.2,866.6 858.3,811.8 	"/>
	<polygon class="st32" points="916.7,810.3 935.5,866.6 955.9,866.6 938.8,810.3 	"/>
	<path class="st33" d="M954.7,722.1v91.4H684.9v-91.4c0-8.5,6.9-15.3,15.3-15.3h239.1C947.8,706.8,954.7,713.7,954.7,722.1z"/>
	<path class="st34" d="M954.7,720.8v92.8h-47.4c0.1-24,0.3-74.4-0.1-88c-0.2-10.3-5.2-15.9-9.4-18.8h42.8
		C948.5,706.8,954.7,713,954.7,720.8z"/>
	<path class="st35" d="M887.9,737.3v56.4H704.9v-56.4c0-5.3,4.4-9.5,9.9-9.5H878C883.4,727.8,887.9,732,887.9,737.3z"/>
	<path class="st36" d="M743.6,727.8c-2.6,2-5.5,5.3-5.5,10.3v55.6h-33.2v-56.4c0-5.3,4.4-9.5,9.9-9.5L743.6,727.8L743.6,727.8z"/>
	<polygon class="st37" points="241.7,790.5 220,864.6 241.7,864.6 264.5,790.5 	"/>
	<polygon class="st37" points="323,793.7 302.9,866.8 323.8,866.8 346.1,791.5 	"/>
	<polygon class="st37" points="414,785.1 439.4,866.6 460.1,866.6 435.9,781.9 	"/>
	<polygon class="st37" points="494.6,793.1 517.6,866.8 538.1,866.8 515.5,791.5 	"/>
	<path class="st38" d="M270.8,790.9c0,0,23.4,10.6,54,6.3s102.8-11.7,102.8-11.7L398.9,772L270.8,790.9z"/>
	<path class="st39" d="M542.8,792.6c0,0-74.9,9.5-91.4,11.9c-0.7,0.1-1.3,0.2-1.9,0.2c-15.2,1.4-21.9-7.5-28.9-17.3
		c-7.2-10.3-22.5-9.4-22.5-9.4s-86,10.3-139.4,16.5s-75-46.1-75-46.1s-78.4-188.9-81-195.5s-8.6-15.5-12.8-17.8
		c-4.2-2.4-21.5-5.2-15.3-23.4c1.9-5.6,6.9-7.3,10.6-7.7c2.4-0.3,4.2-0.1,4.2-0.1h64.4l315.9,178.8L542.8,792.6z"/>
	<path class="st40" d="M449.5,804.7c-15.2,1.4-21.9-7.5-28.9-17.3c-7.2-10.3-22.5-9.4-22.5-9.4s-86,10.3-139.4,16.5
		s-75-46.1-75-46.1s-78.4-188.9-81-195.5s-8.6-15.5-12.8-17.8c-4.2-2.4-21.5-5.2-15.3-23.4c1.9-5.6,6.9-7.3,10.6-7.7
		c7.8,1,17.5,3.9,24.9,11.4c14.7,14.9,24.9,40.3,31.8,59.5c6.9,19.2,60.8,146.3,60.8,146.3s11.4,53.3,61.9,44.5
		C315.1,757,383,750.5,383,750.5s44.2-2.7,61.2,19.1c8.5,10.9,11.6,14.9,12.6,16.1C457.5,787.5,462.4,800.4,449.5,804.7z"/>
	<path class="st41" d="M457.2,786.1c0,0-0.1-0.2-0.4-0.5c0-0.1-0.1-0.1-0.1-0.2C456.8,785.6,457.1,786,457.2,786.1z"/>
	<path class="st0" d="M586.6,821.7c0,0-25.8-92.6-26.5-103c-0.7-10.4-29.2-76.8-33.5-78.1s-45.3-12.1-67.7,4.7S353,730.4,353,730.4
		l119-13.3l69.8,114.7C541.7,831.8,578.6,831.4,586.6,821.7z"/>
	<path class="st42" d="M214.7,658.8c0,0,6.7,104.9,138.2,71.6c0,0,28.8-9.8,69.1-46s88.4-62.8,109.1-25.6
		c20.7,37.2,31.9,76.1,31.9,76.1l55.8,47c0,0,26.7-13.3,35.8-33.7c0,0-124.5-153.7-150.8-159.3c-26.3-5.6-116.5-8.8-143.5,0
		C333.3,597.8,214.7,658.8,214.7,658.8z"/>
	<path class="st43" d="M395.2,452.2l-17,70.4l-10.4-2.4l-20-4.6l16.1,74.7l-147.4,75l-76.6-67.4c0,0-10.7-135,82.7-155.4l59.6-15.2
		C282.1,427.2,338.4,421.6,395.2,452.2z"/>
	<polygon class="st31" points="367.8,520.3 347.7,515.7 338.8,473.7 	"/>
	<polygon class="st31" points="221.9,539 213.2,590 211.1,610.6 207.3,633.1 239,622.5 	"/>
	<path class="st44" d="M195.1,350.8c-7,16.6,5,35.6,15.7,43.1s19.3,16.3,19.9,19.9s19.9-63,19.9-63s6.3-17-9.6-22.8
		c0,0,4,8.6-0.2,10.3C236.5,339.9,204.7,328,195.1,350.8z"/>
	<path class="st45" d="M268.7,421.3c0,0,14.7-0.8,20.9,10.5s9.3,28.6,9.3,28.6l-15.3-6.3L268.7,421.3z"/>
	<g>
		<path class="st31" d="M777.1,398.5H529.5v17.8c0,2.8,2.2,5,5,5h237.6c2.8,0,5-2.2,5-5V398.5z"/>
		<path class="st43" d="M729,319.8c-2.3-2.7-5.6-4.2-9.1-4.2H541.5c-6.6,0-12,5.4-12,12v48c0,0,0,0,0,0h0v22.8h247.6v-16.1
			c0-4.3-1.5-8.5-4.4-11.8L729,319.8z"/>
		<g id="kolo">
			<circle class="st0" cx="733.8" cy="413" r="22.8"/>
			<circle class="st3" cx="733.8" cy="413" r="15.6"/>
			<circle class="st2" cx="733.8" cy="413" r="8.4"/>
		</g>
		<g id="kolo_1_">
			<circle class="st0" cx="562" cy="413" r="22.8"/>
			<circle class="st3" cx="562" cy="413" r="15.6"/>
			<circle class="st2" cx="562" cy="413" r="8.4"/>
		</g>
		<path class="st0" d="M607.3,324h59.5c3.1,0,5.7,2.6,5.7,5.7v66.7c0,3.1-2.6,5.7-5.7,5.7h-59.5c-3.1,0-5.7-2.6-5.7-5.7v-66.7
			C601.6,326.6,604.2,324,607.3,324z"/>
		<path class="st3" d="M735,362.5h-45.7c-3.3,0-6-2.7-6-6V330c0-3.3,2.7-6,6-6H714c2.6,0,5.1,1.2,6.7,3.4l19.1,25.5
			C742.8,356.8,740,362.5,735,362.5z"/>
		<path class="st2" d="M619.2,358.9h45.3c1.1,0,2,0.9,2,2v41.3h-49.3v-41.3C617.2,359.8,618.1,358.9,619.2,358.9z"/>
		<path class="st2" d="M653.3,358.9h-2.4v-7.7c0-0.4,0.3-0.7,0.7-0.7h1c0.4,0,0.7,0.3,0.7,0.7V358.9z"/>
		<line class="st46" x1="617.2" y1="367.3" x2="666.5" y2="367.3"/>
		<line class="st46" x1="640.7" y1="366.7" x2="640.7" y2="402.1"/>
		<g>
			<path class="st43" d="M550.8,324h59.5c3.1,0,5.7,2.6,5.7,5.7v66.7c0,3.1-2.6,5.7-5.7,5.7h-59.5c-3.1,0-5.7-2.6-5.7-5.7v-66.7
				C545.1,326.6,547.7,324,550.8,324z"/>
			<path class="st3" d="M556.3,361.3h48.5c2.2,0,4-1.8,4-4V334c0-2.2-1.8-4-4-4h-48.5c-2.2,0-4,1.8-4,4v23.2
				C552.3,359.5,554.1,361.3,556.3,361.3z"/>
		</g>
		<path class="st31" d="M738.7,362.5h-1.4c-1.9,0-3.5-1.6-3.5-3.5v-11c0-1.9,1.6-3.5,3.5-3.5h1.4c1.9,0,3.5,1.6,3.5,3.5v11
			C742.2,360.9,740.6,362.5,738.7,362.5z"/>
	</g>
	<path class="st30" d="M230.7,437.3v-23.5l-2.3-20.9c-6.9,1-13.2-2.8-11.7-9.6c2.3-10.3,13.4-2.9,13.4-2.9
		c10.9,0,18.9-30.8,18.9-30.8c2.3,0.2,9.4,7.1,11.5,11.1c1.6,3.1,9,8.3,12.2,10.5c0.7,0.5,0.6,1.5-0.1,1.9l-2.3,1.1
		c15.5,30.8-6.1,31.6-6.1,31.6l3.5,8.8l19.5,48.8L230.7,437.3z"/>
	<path class="st47" d="M267.7,414.5c-0.4,0-13.5-1.8-23.5-13.9c0,0,6.9,5,20,5.1L267.7,414.5z"/>
	<circle class="st48" cx="255.4" cy="368.2" r="2.8"/>
	<path class="st1" d="M268.7,381.2c0,0-5.2,2.2-9.5,1c0,0,1.8,3.5,8,3.5C271.6,385.7,268.7,381.2,268.7,381.2z"/>
	<g>
		<path d="M245.3,369.2C245.3,369.2,245.3,369.2,245.3,369.2c-0.3,0-0.5-0.3-0.5-0.5c0-0.2,0.8-5.9,11.1-7.3c0.3,0,0.5,0.1,0.6,0.4
			c0,0.3-0.1,0.5-0.4,0.6c-9.4,1.3-10.2,6.2-10.2,6.5C245.8,369,245.6,369.2,245.3,369.2z"/>
	</g>
	<path class="st30" d="M523.8,396.6l-41.5,101.1c0,0-14,38-44.4,34s-66-10.4-66-10.4l23.3-69l40.7,14.4l50.8-80.1
		c0,0-9-29.5,0.3-45.6c1.3-2.3,4.2-3.4,6.7-2.4c1.3,0.5,2.3,1.5,2.5,3.5c0.3,5.3-0.2,14.5-0.2,14.5l18.8-38.1
		c1.1-2.2,3.6-3.2,5.9-2.4c2.3,0.8,3.6,3.3,3,5.7l-5.5,20.7c0,0,11-3.5,9.4,9.7c0,0,8.1-0.6,7,13.2
		C534.4,365.4,546.9,379.4,523.8,396.6z"/>
	<polygon class="st47" points="424.6,486.3 427.5,472.8 395.2,452.2 435.9,466.6 	"/>
	<path class="st49" d="M502.3,379c0,0,1.9-16.7-6.9-20.6"/>
	<path class="st49" d="M513.6,350.7c0,0-2.2,11.2,2,11.8c4.2,0.6,11.9-10.4,11.9-10.4"/>
	<path class="st49" d="M520.8,364.9c0,0-2.3,14.1,4.6,9.9s9-9.5,9-9.5"/>
	<path class="st49" d="M525.8,377.8c0,0-0.2,10.5,6,8.5c6.2-1.9,5.4-15.5,5.4-15.5"/>
	<path class="st30" d="M367.8,601.8c0,0,0.1,7.5-9.3,5.2c0,0,3.2,7.4-8.1,5.6c0,0,1.5,6.1-5.2,5.6c-6.7-0.5-13.4-8.5-13.4-8.5
		s-9.7,12.6-27.5,9.3c0,0-75.1,47.2-110.3,54.1c-35.2,6.8-59.1,3.4-53.2-75.2l72.5-7.9l-1,10.1l-1.1,10.5l86.3-17.6
		c0,0,54.2-40.5,75.8,2.3C373.2,595.3,375.8,601.1,367.8,601.8z"/>
	<polygon class="st47" points="212.2,600.1 211.1,610.6 187.2,615.9 	"/>
	<path class="st49" d="M337.4,600.3c0,0,10.6,5.6,13.1,12.3"/>
	<path class="st49" d="M343.9,593.3c0,0,11,4.8,14.6,13.7"/>
	<path class="st49" d="M350.4,588.1c0,0,13.3,5.2,17.4,13.7"/>
	<polygon class="st50" points="211.6,443.8 232.1,429.5 283.6,454.1 278.4,475 	"/>
	<path class="st26" d="M521.6,551.3l-17.8,71.1c-1,4-4.5,6.7-8.6,6.7H306.4c0,0-3.1-1.8-1.4-7.8h68.5l17.9-73.3
		c0.8-3.1,3.5-5.3,6.7-5.3h116.7C519.4,542.7,522.7,547,521.6,551.3z"/>
	<path class="st3" d="M374.5,629.1h-68c0,0-3.1-1.8-1.4-7.8h68.5C373.6,621.3,369.1,625.7,374.5,629.1z"/>
	<g>
		<circle class="st26" cx="1143.6" cy="240.5" r="87.7"/>
		<path class="st51" d="M1131.7,116.9c-13.3,9.2-0.6,19.8-0.6,19.8s-12.2,7.3-6.5,20.9c0,0-15.1,6.5-13.1,22.6s23.2,36.8,23.2,36.8
			l73.4,7.3c0,0,8.8-55.4-13-65.8c0,0-9.1-3.2-8.8-15.1c0.3-11.9-11-19.2-29.3-15C1156.9,128.2,1145.6,107.3,1131.7,116.9z"/>
		<path class="st52" d="M1166.8,172.7c0,0,2.9,32.4,5.1,37.4s-21.5,28.3-21.5,28.3l-34.4-19.5l20.2-14.2l0.5-5.9l0.9-10.2
			c0,0-11.7-3.9-11.6-15.1c0.2-11.3,6.5-36,6.5-36s12.3,7.6,19.5,0c0,0,2.5,12.5,15.9,7.6l-3.1,14.5c0,0,4.8-3.9,9.9-1.7
			C1179.8,160,1175.6,172.4,1166.8,172.7z"/>
		<path class="st53" d="M1158.5,179.9c-3.6,12-21.8,18.9-21.8,18.9l0.9-10.2C1152.7,189.6,1158.2,180.4,1158.5,179.9z"/>
		<g>
			<path class="st53" d="M1141.7,168.2C1141.7,168.2,1141.7,168.2,1141.7,168.2c-3.3-0.1-4.5-1.2-5-2.2c-0.7-1.6,0-3.7,2-6
				c3.3-3.8,0.7-9.2,0.7-9.2c-0.1-0.2,0-0.6,0.2-0.7c0.2-0.1,0.6,0,0.7,0.2s2.9,6.1-0.8,10.3c-1.7,2-2.4,3.8-1.9,5
				c0.5,1,1.9,1.6,4.1,1.7c0.3,0,0.5,0.2,0.5,0.5C1142.2,168,1141.9,168.2,1141.7,168.2z"/>
		</g>
		<ellipse transform="matrix(0.1115 -0.9938 0.9938 0.1115 868.5864 1278.4076)" cx="1149.2" cy="153.5" rx="2.7" ry="2.1"/>
		<ellipse transform="matrix(0.1115 -0.9938 0.9938 0.1115 857.9944 1261.2117)" cx="1134.3" cy="150.8" rx="2.5" ry="2"/>
		<path class="st1" d="M1134.3,171.1c-0.1-0.5,0.4-0.9,0.8-0.7c2.3,0.8,8,2.5,11.4,0.9c4.3-1.9-0.2,6.3-5.9,5.7
			C1137.4,176.7,1135.1,175.5,1134.3,171.1z"/>
		<g>
			<path d="M1156.2,150c-0.1,0-0.2,0-0.3-0.1c-4.6-3.2-9.3-1.3-9.3-1.3c-0.3,0.1-0.5,0-0.7-0.3s0-0.6,0.3-0.7
				c0.2-0.1,5.2-2.2,10.3,1.4c0.2,0.2,0.3,0.5,0.1,0.7C1156.5,149.9,1156.4,150,1156.2,150z"/>
		</g>
		<g>
			<path d="M1138.9,148.6c-0.2,0-0.4-0.1-0.5-0.3c-1.3-3.3-5.8-2.8-5.9-2.8c-0.3,0-0.5-0.2-0.5-0.4c0-0.3,0.2-0.5,0.4-0.6
				c0.2,0,5.3-0.6,6.9,3.4c0.1,0.3,0,0.6-0.3,0.7C1139,148.6,1138.9,148.6,1138.9,148.6z"/>
		</g>
		<path class="st52" d="M964.7,140.4c-0.6,2.3,4.4,35.8,19.3,41.7c0,0,28.3,97.4,51.6,97.6c23.3,0.2,38.9-6.5,38.9-6.5l-13.3-46.7
			l-13.8,5.6l-39.4-58.9c0,0,8.1-19.5,0.4-33.8c-1.6-2.4-6.4-2.5-5.7,4.6s0.5,9.8,0.5,9.8s-13.3-29-13.8-31.4
			c-0.5-2.4-7.8-2.3-6.6,3.8c0,0-2.9-5.6-5.8-3.7c-3,2-0.9,10.7-0.9,10.7s-2.9-6.3-5.6-3.6c-2.8,2.7-0.3,9.3-0.3,9.3
			S966.2,135,964.7,140.4z"/>
		<g>
			<path class="st53" d="M973.9,159.7c-0.1,0-0.3-0.1-0.4-0.2c-0.2-0.2-0.2-0.5,0.1-0.7c0.6-0.5,14.4-11.9,21.7-13.6
				c0.3-0.1,0.5,0.1,0.6,0.4c0.1,0.3-0.1,0.5-0.4,0.6c-7.1,1.6-21.2,13.3-21.3,13.4C974.2,159.7,974,159.7,973.9,159.7z"/>
		</g>
		<g>
			<path class="st53" d="M997.7,171.5c-0.2,0-0.4-0.2-0.5-0.4c-0.1-0.6-2.6-13.4,5.8-16.5c0.3-0.1,0.5,0,0.6,0.3
				c0.1,0.3,0,0.6-0.3,0.6c-7.6,2.8-5.2,15.2-5.2,15.3c0,0.3-0.1,0.5-0.4,0.6C997.8,171.5,997.8,171.5,997.7,171.5z"/>
		</g>
		<g>
			<path class="st53" d="M989.3,145.5c-0.2,0-0.4-0.1-0.5-0.3l-5.4-15.5c-0.1-0.3,0-0.6,0.3-0.6c0.3-0.1,0.5,0,0.6,0.3l5.4,15.5
				c0.1,0.3,0,0.6-0.3,0.6C989.5,145.5,989.4,145.5,989.3,145.5z"/>
		</g>
		<g>
			<path class="st53" d="M981.8,149.7c-0.2,0-0.4-0.1-0.5-0.3l-5.9-16.9c-0.1-0.3,0-0.5,0.3-0.6c0.3-0.1,0.5,0.1,0.6,0.3l5.9,16.9
				c0.1,0.3,0,0.6-0.3,0.6C981.9,149.7,981.9,149.7,981.8,149.7z"/>
		</g>
		<g>
			<path class="st53" d="M975.3,154.2c-0.2,0-0.4-0.1-0.5-0.3l-5.1-14.8c-0.1-0.3,0-0.6,0.3-0.6s0.5,0.1,0.6,0.3l5.1,14.8
				c0.1,0.3,0,0.6-0.3,0.6C975.4,154.2,975.4,154.2,975.3,154.2z"/>
		</g>
		<g>
			<g>
				<defs>
					<circle id="SVGID_1_" cx="1143.6" cy="240.5" r="87.7"/>
				</defs>
				<clipPath id="SVGID_2_">
					<use xlink:href="#SVGID_1_"  style="overflow:visible;"/>
				</clipPath>
				<path class="st54" d="M1059.6,227.3c0,0,49.6-25.4,75-21.6c0,0-7.2,16.5,5,18.3c12.2,1.9,31.3-18,31.3-18s29.4,7.8,41,22.3
					s20.1,35.7,20.1,35.7l-42.6,21.9l12.8,46.6h-124.5l7.4-63.6l-12.5,5L1059.6,227.3z"/>
			</g>
		</g>
		<g>
			<g>
				<defs>
					<circle id="SVGID_3_" cx="1143.6" cy="240.5" r="87.7"/>
				</defs>
				<clipPath id="SVGID_4_">
					<use xlink:href="#SVGID_3_"  style="overflow:visible;"/>
				</clipPath>
				<polygon class="st55" points="1184,269.9 1202.2,332.7 1249.4,314.4 1232,264.1 				"/>
			</g>
		</g>
	</g>
	<g>
		<circle class="st26" cx="1065.6" cy="606" r="113"/>
		<path class="st56" d="M1102.7,493.1c0,0-28.6-31.6-42.6-13.1s35.3,71.3,35.3,71.3s36-29.6,24.9-52.5
			C1115.1,488.1,1102.7,493.1,1102.7,493.1z"/>
		<path class="st57" d="M1064.9,570.6l0.3-8.4l0.3-10.8c0,0-17.5-1.4-12-23.7c5.5-22.3,7.7-32.4,7.7-32.4s2.6,7.1,36.7,9.4v17.1
			c0,0,9.2-6.8,11.8,0c2.6,6.8-1.5,12.1-10.6,11.4c0,0-0.6,37.2,2.9,42.9c3.5,5.7-37.8,26.4-37.8,26.4l-13.5-23.8L1064.9,570.6z"/>
		<path class="st58" d="M1065.5,551.4c14.7,1,21.6-7.5,21.6-7.5c-3.3,11.6-21.9,18.3-21.9,18.3L1065.5,551.4z"/>
		<path class="st59" d="M1075.1,512.8c9.6-3.2,12.6,1.5,12.6,1.5"/>
		<path class="st59" d="M1060.5,507.7c6.2-2.2,7.4,2.8,7.4,2.8"/>
		<path class="st60" d="M1067,529.2c0,0,0,0-3.2-0.5c-3.2-0.5-1.3-3.5,2.8-6.1c4.2-2.6,2.8-10.2,2.8-10.2"/>
		<path class="st1" d="M1064.2,537.9c-3.8-0.1-7.4-7.7-3.7-5.2c3.7,2.5,10.5,1.2,10.5,1.2C1070.6,536.3,1068,538,1064.2,537.9z"/>
		<ellipse transform="matrix(0.2506 -0.9681 0.9681 0.2506 308.4308 1432.6644)" cx="1079.6" cy="517.1" rx="2" ry="1.8"/>
		<ellipse transform="matrix(0.1677 -0.9858 0.9858 0.1677 379.213 1475.1742)" cx="1063.3" cy="513" rx="2" ry="1.7"/>
		<g>
			<g>
				<defs>
					<circle id="SVGID_5_" cx="1065.6" cy="606" r="113"/>
				</defs>
				<clipPath id="SVGID_6_">
					<use xlink:href="#SVGID_5_"  style="overflow:visible;"/>
				</clipPath>
				<g class="st61">
					<path class="st62" d="M1176.5,707.3H952.7v-77.7c55.3-65,112.2-59,112.2-59c-9.5,11.3-4.8,18.1-1,19.6
						c24.9,6.4,36.6-20.4,36.6-20.4c55.4,5,76.1,68.6,76.1,68.6V707.3z"/>
				</g>
			</g>
		</g>
		<path class="st57" d="M1125.9,685c0,0-14.3,52.9-48.7,51.7S963.7,676,963.7,676c-30.3,0.2-56.9-17.3-56.9-20
			c0-2.7,2.6-2.1,2.6-2.1s-5.8-5.8-4.7-8.2c1.1-2.5,4-1.9,4-1.9s-5.5-6.8-4.4-9.1c1.2-2.2,4.1-1.5,4.1-1.5c-4.6-6.2,0-8.6,0-8.6
			s14.4,7.5,26.4,13.2c12,5.7,16.8,4.6,9.3-3.1c-7.5-7.7-2.2-14.6-0.7-12.3c1.5,2.4,26.5,25.1,38.8,28.6c12.3,3.5,81,27.3,81,27.3
			l12.5-18.5L1125.9,685z"/>
		<polygon class="st63" points="1050.8,673.9 1063.2,678.2 1075.7,659.7 1098.9,621.9 		"/>
		<path class="st63" d="M986.3,652.1l13.2,4.3l10.5-35.5C1007.8,630.3,986.3,652.1,986.3,652.1z"/>
		<path class="st63" d="M1118.8,703.3l7.1-18.3l32.9-52.1C1152.2,675.3,1118.8,703.3,1118.8,703.3z"/>
	</g>
	<g>
		<path class="st3" d="M1048.5,390.1h124c5.9,0,10.7,4.9,10.7,11V463c0,6.1-4.8,11-10.7,11h-12.9l-14.1,11.6
			c-0.9,0.8-2.3,0.1-2.3-1.1V474h-94.8c-5.9,0-10.7-4.9-10.7-11v-61.8C1037.8,395,1042.6,390.1,1048.5,390.1z"/>
		<path class="st1" d="M1086.1,418.3h-22.9c-1.9,0-3.4-1.5-3.4-3.4l0,0c0-1.9,1.5-3.4,3.4-3.4h22.9c1.9,0,3.4,1.5,3.4,3.4l0,0
			C1089.4,416.8,1087.9,418.3,1086.1,418.3z"/>
		<path class="st1" d="M1159.7,435.4h-96.5c-1.9,0-3.4-1.5-3.4-3.4l0,0c0-1.9,1.5-3.4,3.4-3.4h96.5c1.9,0,3.4,1.5,3.4,3.4l0,0
			C1163.1,433.9,1161.6,435.4,1159.7,435.4z"/>
		<path class="st1" d="M1160.9,452.5h-96.5c-1.9,0-3.4-1.5-3.4-3.4l0,0c0-1.9,1.5-3.4,3.4-3.4h96.5c1.9,0,3.4,1.5,3.4,3.4l0,0
			C1164.3,451,1162.7,452.5,1160.9,452.5z"/>
	</g>
	<path class="st42" d="M535.2,473.3h170c3.1,0,5.7-2.6,5.7-5.7l0,0c0-3.1-2.6-5.7-5.7-5.7h-170c-3.1,0-5.7,2.6-5.7,5.7l0,0
		C529.5,470.7,532.1,473.3,535.2,473.3z"/>
	<path class="st2" d="M723.9,473.3h47.5c3.1,0,5.7-2.6,5.7-5.7l0,0c0-3.1-2.6-5.7-5.7-5.7h-47.5c-3.1,0-5.7,2.6-5.7,5.7l0,0
		C718.2,470.7,720.7,473.3,723.9,473.3z"/>
</g>
</svg>
