<svg id="Vrstva_1" data-name="Vrstva 1" xmlns="http://www.w3.org/2000/svg" xmlns:xlink="http://www.w3.org/1999/xlink" viewBox="0 0 465.16 429.87"><defs><style>.cls-1,.cls-21,.cls-4,.cls-40,.cls-41,.cls-45,.cls-46,.cls-49,.cls-5,.cls-50,.cls-6,.cls-8{fill:none;}.cls-2{fill:url(#Nepojmenovaný_přechod_39);}.cls-3{opacity:0.25;}.cls-4,.cls-5,.cls-6,.cls-8{stroke:#056165;}.cls-10,.cls-21,.cls-4,.cls-40,.cls-41,.cls-45,.cls-46,.cls-49,.cls-50{stroke-miterlimit:10;}.cls-5{stroke-width:1.04px;}.cls-6{opacity:0.7;}.cls-7{opacity:0.75;}.cls-8{opacity:0.5;}.cls-9{fill:#fff;}.cls-10{fill:#dcf7f6;stroke:#a3e7ea;}.cls-11{fill:#fec23c;}.cls-12{fill:#84b4e1;}.cls-13{fill:#32baa0;}.cls-14{fill:#09b0b7;}.cls-15{fill:#be2026;}.cls-16{fill:#f04f51;}.cls-17{fill:#05585c;}.cls-18{fill:#a3e7ea;}.cls-19{fill:#92d8db;}.cls-20{fill:#034d50;}.cls-21{stroke:#1f0f45;stroke-width:0.5px;}.cls-22{fill:#d2fafc;}.cls-23{clip-path:url(#clip-path);}.cls-24{fill:#d3f1f2;}.cls-25{fill:#042036;}.cls-26{fill:#f9ac94;}.cls-27{fill:#ea7d61;}.cls-28{clip-path:url(#clip-path-2);}.cls-29{fill:#f26722;}.cls-30{clip-path:url(#clip-path-3);}.cls-31{clip-path:url(#clip-path-4);}.cls-32{fill:#ffcf69;}.cls-33{clip-path:url(#clip-path-5);}.cls-34{fill:#151744;}.cls-35{fill:#f9af9a;}.cls-36{fill:#e77f62;}.cls-37{fill:#ce6e58;}.cls-38{fill:#056165;}.cls-39{clip-path:url(#clip-path-6);}.cls-40,.cls-41,.cls-45,.cls-49{stroke:#000;}.cls-40,.cls-41,.cls-45,.cls-46,.cls-49,.cls-50{stroke-linecap:round;}.cls-40{stroke-width:0.32px;}.cls-41{stroke-width:0.26px;}.cls-42{clip-path:url(#clip-path-7);}.cls-43{fill:#f9b19b;}.cls-44{fill:#ec866c;}.cls-45,.cls-46{stroke-width:0.27px;}.cls-46,.cls-50{stroke:#ca6855;}.cls-47{fill:#ca7a29;}.cls-48{clip-path:url(#clip-path-8);}.cls-49,.cls-50{stroke-width:0.27px;}.cls-51{fill:#cc521b;}.cls-52{fill:#310f32;}.cls-53{fill:#fcbe4e;}.cls-54{fill:#f8b6bf;}.cls-55{fill:#f5909d;}.cls-56{fill:#300f31;}.cls-57{fill:#ffd888;}</style><radialGradient id="Nepojmenovaný_přechod_39" cx="235.14" cy="230.08" r="198.77" gradientUnits="userSpaceOnUse"><stop offset="0" stop-color="#034d50" stop-opacity="0.6"/><stop offset="0.15" stop-color="#034d50" stop-opacity="0.43"/><stop offset="0.42" stop-color="#034d50" stop-opacity="0.19"/><stop offset="0.7" stop-color="#034d50" stop-opacity="0.05"/><stop offset="1" stop-color="#034d50" stop-opacity="0"/></radialGradient><clipPath id="clip-path" transform="translate(-279.92 -169.56)"><circle class="cls-1" cx="316.32" cy="400" r="29.89" transform="matrix(0.03, -1, 1, 0.03, -93.99, 702.83)"/></clipPath><clipPath id="clip-path-2" transform="translate(-279.92 -169.56)"><circle class="cls-1" cx="315.98" cy="419.08" r="29.89" transform="translate(-113.39 720.94) rotate(-88.09)"/></clipPath><clipPath id="clip-path-3" transform="translate(-279.92 -169.56)"><circle class="cls-1" cx="630.32" cy="508.05" r="30.18"/></clipPath><clipPath id="clip-path-4" transform="translate(-279.92 -169.56)"><circle class="cls-1" cx="630.66" cy="527.32" r="30.18"/></clipPath><clipPath id="clip-path-5" transform="translate(-279.92 -169.56)"><circle class="cls-1" cx="714.24" cy="404.41" r="30.84" transform="translate(200.65 1044.65) rotate(-80.78)"/></clipPath><clipPath id="clip-path-6" transform="translate(-279.92 -169.56)"><circle class="cls-1" cx="447.24" cy="531.47" r="30.84"/></clipPath><clipPath id="clip-path-7" transform="translate(-279.92 -169.56)"><circle class="cls-1" cx="515.93" cy="200.41" r="30.84"/></clipPath><clipPath id="clip-path-8" transform="translate(-279.92 -169.56)"><circle class="cls-1" cx="610.15" cy="284.47" r="30.49"/></clipPath></defs><circle class="cls-2" cx="235.14" cy="230.08" r="198.77"/><g id="Ellipse_7" data-name="Ellipse 7" class="cls-3"><circle class="cls-4" cx="235.14" cy="230.08" r="199.29"/><circle class="cls-5" cx="235.14" cy="230.08" r="198.77"/></g><g id="Ellipse_8" data-name="Ellipse 8"><circle class="cls-4" cx="235.14" cy="230.08" r="101"/><circle class="cls-6" cx="235.14" cy="230.08" r="100.5"/></g><g id="Ellipse_9" data-name="Ellipse 9" class="cls-7"><circle class="cls-4" cx="235.14" cy="230.08" r="151"/><circle class="cls-8" cx="235.14" cy="230.08" r="150.5"/></g><path id="Path_159" data-name="Path 159" class="cls-9" d="M601.84,462.6H428.29a8.54,8.54,0,0,1-8.54-8.54h0V345.22a8.53,8.53,0,0,1,8.54-8.53H601.84a8.54,8.54,0,0,1,8.54,8.53h0V454.06a8.54,8.54,0,0,1-8.54,8.54Z" transform="translate(-279.92 -169.56)"/><path id="Path_160" data-name="Path 160" class="cls-10" d="M593.52,454.31H434a5.12,5.12,0,0,1-5.12-5.12h0v-86a5.12,5.12,0,0,1,5.12-5.12H593.52a5.12,5.12,0,0,1,5.12,5.12h0v86a5.12,5.12,0,0,1-5.11,5.12Z" transform="translate(-279.92 -169.56)"/><circle id="Ellipse_24" data-name="Ellipse 24" class="cls-11" cx="151.2" cy="174.32" r="1.79"/><circle id="Ellipse_25" data-name="Ellipse 25" class="cls-12" cx="156.51" cy="174.32" r="1.79"/><circle id="Ellipse_26" data-name="Ellipse 26" class="cls-13" cx="161.89" cy="174.32" r="1.79"/><path id="Path_161" data-name="Path 161" class="cls-14" d="M596.33,353.92H431.62a2.31,2.31,0,0,1-2.3-2.31h0a2.31,2.31,0,0,1,2.3-2.31H596.33a2.31,2.31,0,0,1,2.31,2.31h0a2.31,2.31,0,0,1-2.31,2.31Z" transform="translate(-279.92 -169.56)"/><g id="Group_50" data-name="Group 50"><path id="Rectangle_84" data-name="Rectangle 84" class="cls-15" d="M466.76,411.79h100V416a5,5,0,0,1-5,5h-90a5,5,0,0,1-5-5v-4.22Z" transform="translate(-279.92 -169.56)"/><path id="Path_194" data-name="Path 194" class="cls-16" d="M547.37,380a4.87,4.87,0,0,0-3.68-1.69H471.62a4.85,4.85,0,0,0-4.86,4.86h0v19.4l0,0h0v9.23h100v-6.53a7.27,7.27,0,0,0-1.76-4.75Z" transform="translate(-279.92 -169.56)"/><g id="kolo"><circle id="Ellipse_27" data-name="Ellipse 27" class="cls-17" cx="269.4" cy="248.05" r="9.23"/><circle id="Ellipse_28" data-name="Ellipse 28" class="cls-18" cx="269.4" cy="248.05" r="6.31"/><circle id="Ellipse_29" data-name="Ellipse 29" class="cls-19" cx="269.4" cy="248.05" r="3.4"/></g><g id="kolo-2"><circle id="Ellipse_30" data-name="Ellipse 30" class="cls-17" cx="199.95" cy="248.05" r="9.23"/><circle id="Ellipse_31" data-name="Ellipse 31" class="cls-18" cx="199.95" cy="248.05" r="6.31"/><circle id="Ellipse_32" data-name="Ellipse 32" class="cls-19" cx="199.95" cy="248.05" r="3.4"/></g><rect id="Rectangle_85" data-name="Rectangle 85" class="cls-20" x="215.98" y="212.12" width="28.65" height="31.57" rx="5.69"/><path id="Path_195" data-name="Path 195" class="cls-18" d="M549.8,397.22H531.35a2.43,2.43,0,0,1-2.43-2.43V384.11a2.43,2.43,0,0,1,2.43-2.43h9.95A3.37,3.37,0,0,1,544,383l7.73,10.3a2.43,2.43,0,0,1-2,3.88Z" transform="translate(-279.92 -169.56)"/><path id="Rectangle_86" data-name="Rectangle 86" class="cls-14" d="M504.21,395.76h15.91a2,2,0,0,1,2,2v15.49H502.21V397.76A2,2,0,0,1,504.21,395.76Z" transform="translate(-279.92 -169.56)"/><path id="Rectangle_87" data-name="Rectangle 87" class="cls-14" d="M516.3,392.36h0a.49.49,0,0,1,.48.49v2.91h-1v-2.91a.49.49,0,0,1,.49-.49Z" transform="translate(-279.92 -169.56)"/><line id="Line_8" data-name="Line 8" class="cls-21" x1="222.29" y1="229.6" x2="242.2" y2="229.6"/><line id="Line_9" data-name="Line 9" class="cls-21" x1="231.76" y1="229.36" x2="231.76" y2="243.68"/><g id="Group_49" data-name="Group 49"><rect id="Rectangle_88" data-name="Rectangle 88" class="cls-16" x="193.15" y="212.12" width="28.65" height="31.57" rx="5.69"/><rect id="Rectangle_89" data-name="Rectangle 89" class="cls-18" x="196.07" y="214.54" width="22.83" height="12.63" rx="4"/></g><path id="Rectangle_90" data-name="Rectangle 90" class="cls-15" d="M551,389.93h0a1.7,1.7,0,0,1,1.7,1.7v3.89a1.7,1.7,0,0,1-1.7,1.7h0a1.7,1.7,0,0,1-1.7-1.7v-3.89A1.7,1.7,0,0,1,551,389.93Z" transform="translate(-279.92 -169.56)"/><rect id="Rectangle_91" data-name="Rectangle 91" class="cls-22" x="280.56" y="233.71" width="6" height="7" rx="2"/></g><rect class="cls-17" x="186.88" y="268.01" width="71" height="5" rx="2.5"/><rect class="cls-14" x="260.88" y="268.01" width="26" height="5" rx="2.5"/><g class="cls-23"><circle class="cls-24" cx="316.32" cy="400" r="29.89" transform="matrix(0.03, -1, 1, 0.03, -373.91, 533.27)"/><path class="cls-25" d="M311.44,380.83c-6.26-1.43-10.1,1.05-10,5.1a5.09,5.09,0,0,1-3,5.16C291,394.61,294,413.51,294,413.51L319,411s7.21-7,7.9-12.52-4.47-7.68-4.47-7.68a5.66,5.66,0,0,0-2.22-7.11s4.32-3.61-.21-6.73C315.29,373.72,311.44,380.83,311.44,380.83Z" transform="translate(-279.92 -169.56)"/><path class="cls-26" d="M305.39,390.93a3.58,3.58,0,0,1,3.37.58l-1.05-4.95c4.57,1.69,5.42-2.58,5.42-2.58,2.42,2.58,6.63,0,6.63,0s2.16,8.42,2.21,12.27-4,5.15-4,5.15l.3,3.47.18,2,6.89,4.84-11.74,6.63s-8-8-7.31-9.63S308.08,396,308.08,396C305.08,395.88,303.65,391.67,305.39,390.93Z" transform="translate(-279.92 -169.56)"/><path class="cls-27" d="M318,401.4l.3,3.47s-6.21-2.33-7.42-6.43C311,398.62,312.89,401.74,318,401.4Z" transform="translate(-279.92 -169.56)"/><path class="cls-27" d="M316.47,394.3a.16.16,0,0,1,.16-.18c.74,0,1.23-.21,1.39-.56s-.06-1-.64-1.69a3.39,3.39,0,0,1-.27-3.52.16.16,0,0,1,.22-.08.17.17,0,0,1,.08.23,3.13,3.13,0,0,0,.22,3.15c.69.79.94,1.52.7,2.05-.15.33-.57.74-1.69.76h0A.17.17,0,0,1,316.47,394.3Z" transform="translate(-279.92 -169.56)"/><ellipse cx="314.06" cy="389.44" rx="0.72" ry="0.91" transform="translate(-321.38 -132.12) rotate(-6.4)"/><ellipse cx="319.15" cy="388.52" rx="0.67" ry="0.83" transform="translate(-321.25 -131.56) rotate(-6.4)"/><path class="cls-9" d="M317,397.46c-2,.21-3.47-2.58-2-1.93,1.16.51,3.11-.06,3.88-.33a.22.22,0,0,1,.28.24A2.12,2.12,0,0,1,317,397.46Z" transform="translate(-279.92 -169.56)"/><path d="M311.55,388.17a.16.16,0,0,1,0-.23,3.77,3.77,0,0,1,3.5-.47.16.16,0,0,1,.08.22.16.16,0,0,1-.22.09,3.47,3.47,0,0,0-3.17.44.19.19,0,0,1-.1,0A.13.13,0,0,1,311.55,388.17Z" transform="translate(-279.92 -169.56)"/><path d="M317.52,387.78a.16.16,0,0,1-.09-.22c.54-1.36,2.28-1.18,2.35-1.17a.17.17,0,0,1,.15.19.17.17,0,0,1-.18.15s-1.56-.16-2,1a.16.16,0,0,1-.15.1Z" transform="translate(-279.92 -169.56)"/><g class="cls-28"><polygon class="cls-26" points="5.95 257.57 0 274.7 16.11 280.94 22.3 259.55 5.95 257.57"/></g><path class="cls-29" d="M291.48,416.64c.4-.57.81-1.13,1.23-1.66,4-5,14-7.6,14-7.6s6.49,6.75,10.65,6.12,1.7-6.24,1.7-6.24c7-1.05,19.28,4.35,23.81,6.5a29.9,29.9,0,0,1-51.37,2.88Z" transform="translate(-279.92 -169.56)"/></g><g class="cls-30"><circle class="cls-24" cx="350.4" cy="338.49" r="30.18"/><path class="cls-25" d="M628.21,486.46c-4.57,3.15-1.84,5.16-1.84,5.16a5.7,5.7,0,0,0-2.24,7.17s-2.61,2.15-1.92,7.67,9,7,9,7h8s8-2,7-10a52.81,52.81,0,0,0-.87-9.61c.1-4.09-3.13-8.39-10.1-5.16C635.24,488.7,635.21,485.46,628.21,486.46Z" transform="translate(-279.92 -169.56)"/><path class="cls-26" d="M638.64,504s1,11.15,1.75,12.85-7.38,9.73-7.38,9.73l-11.85-6.7,7-4.88.18-2,.3-3.5s-4-1.33-4-5.21,2.23-12.38,2.23-12.38,7.54,4.31,12.17,2.61l-1.07,5a3.62,3.62,0,0,1,3.4-.58C643.11,499.64,641.67,503.89,638.64,504Z" transform="translate(-279.92 -169.56)"/><path class="cls-27" d="M635.79,506.48c-1.22,4.14-7.49,6.49-7.49,6.49l.3-3.5C633.78,509.81,635.68,506.66,635.79,506.48Z" transform="translate(-279.92 -169.56)"/><path class="cls-27" d="M630,502.46h0c-1.14,0-1.56-.43-1.71-.77-.24-.54,0-1.27.7-2.07,1.13-1.3.23-3.16.22-3.18a.18.18,0,0,1,.08-.23.17.17,0,0,1,.23.08,3.42,3.42,0,0,1-.27,3.56c-.59.68-.83,1.3-.64,1.7s.65.56,1.39.57a.17.17,0,0,1,.17.18A.17.17,0,0,1,630,502.46Z" transform="translate(-279.92 -169.56)"/><ellipse cx="632.6" cy="497.39" rx="0.92" ry="0.73" transform="translate(-212.14 901.02) rotate(-83.6)"/><ellipse cx="627.47" cy="496.47" rx="0.84" ry="0.68" transform="translate(-215.79 895.1) rotate(-83.6)"/><path class="cls-9" d="M627.46,503.45a.22.22,0,0,1,.28-.24c.78.27,2.75.85,3.92.33,1.47-.66-.06,2.16-2,1.95A2.14,2.14,0,0,1,627.46,503.45Z" transform="translate(-279.92 -169.56)"/><path d="M635,496.19l-.1,0a3.56,3.56,0,0,0-3.2-.45.18.18,0,0,1-.23-.08.19.19,0,0,1,.09-.23,3.81,3.81,0,0,1,3.54.47.17.17,0,0,1,0,.24A.16.16,0,0,1,635,496.19Z" transform="translate(-279.92 -169.56)"/><path d="M629,495.73a.17.17,0,0,1-.16-.11c-.45-1.13-2-1-2-1a.18.18,0,0,1-.19-.16.18.18,0,0,1,.15-.19c.08,0,1.83-.19,2.38,1.18a.18.18,0,0,1-.1.23Z" transform="translate(-279.92 -169.56)"/><g class="cls-31"><polygon class="cls-26" points="364.64 367.89 370.89 389.48 387.15 383.18 381.14 365.89 364.64 367.89"/></g><path class="cls-32" d="M655.39,524.85c-.4-.58-.81-1.14-1.24-1.68-4-5-14.11-7.66-14.11-7.66s-6.56,6.81-10.75,6.18-1.72-6.31-1.72-6.31c-7-1-19.46,4.4-24,6.57a30.18,30.18,0,0,0,51.86,2.9Z" transform="translate(-279.92 -169.56)"/><path class="cls-25" d="M634.21,483.46s-12.21-2.83-11.17,4,22.57,7.37,22.57,7.37,2.8-9-4.4-11.41A12.83,12.83,0,0,0,634.21,483.46Z" transform="translate(-279.92 -169.56)"/></g><g class="cls-33"><circle class="cls-24" cx="714.24" cy="404.41" r="30.84" transform="translate(-79.27 875.08) rotate(-80.78)"/><path class="cls-34" d="M709.37,380.9c-6.4,2.22-4.33,7.43-4.33,7.43s-2.46.2-1.95,3.66c.35,1,3.11,2.25,3.11,2.25l15.19,12.58s7.16-12.17,7-14.6-2.83-3.57-2.83-3.57.64-2.77-2.65-2.66a4.74,4.74,0,0,0-6.64-2.6S713.57,379.45,709.37,380.9Z" transform="translate(-279.92 -169.56)"/><path class="cls-35" d="M721,400.53s.58,12.7,2.2,15.35-12.12,7.85-12.12,7.85-6.7-6.92-.52-10.1c0,0,.17-.75.32-1.77a11.91,11.91,0,0,0,0-4.29,2.76,2.76,0,0,1-.6-.12h0c-1.32-.4-4.36-2.09-4.72-9.17-.46-9.06,0-8.31,0-8.31s3.52,1.85,5.37-1.38a7.62,7.62,0,0,0,9.06,1.32,8.89,8.89,0,0,0-.4,6.7s3.35-1.85,4.16,0S723.93,400.65,721,400.53Z" transform="translate(-279.92 -169.56)"/><path class="cls-36" d="M718.81,403.91c-1.25,5.43-7.89,7.95-7.89,7.95a11.91,11.91,0,0,0,0-4.29A6.8,6.8,0,0,0,718.81,403.91Z" transform="translate(-279.92 -169.56)"/><circle cx="427.18" cy="226.02" r="0.68"/><circle cx="434.27" cy="226.69" r="0.68"/><path class="cls-9" d="M709.32,401.35a.18.18,0,0,1,.21-.23c.7.16,2.46.48,3.41-.08,1.21-.7.14,1.88-1.58,1.88A1.84,1.84,0,0,1,709.32,401.35Z" transform="translate(-279.92 -169.56)"/><path class="cls-37" d="M711.5,400.31c-.5,0-1.67-.06-1.93-.6-.13-.25-.05-.55.23-.88,1.05-1.29.26-4.6.25-4.63l.29-.07c0,.14.84,3.49-.31,4.88-.2.24-.27.43-.2.57.18.36,1.25.45,1.88.43v.29Z" transform="translate(-279.92 -169.56)"/><path d="M706.75,398.51a3.31,3.31,0,1,1,3.31-3.3A3.3,3.3,0,0,1,706.75,398.51Zm0-6.31a3,3,0,1,0,3,3A3,3,0,0,0,706.75,392.2Z" transform="translate(-279.92 -169.56)"/><path d="M714.52,399.07a3.31,3.31,0,1,1,3.3-3.3A3.31,3.31,0,0,1,714.52,399.07Zm0-6.31a3,3,0,1,0,3,3A3,3,0,0,0,714.52,392.76Z" transform="translate(-279.92 -169.56)"/><rect x="429.99" y="225.87" width="1.45" height="0.3"/><rect x="719.33" y="394.08" width="0.3" height="3.6" transform="translate(5.33 923.32) rotate(-86.9)"/><path class="cls-38" d="M714.24,435.25A30.81,30.81,0,0,0,739,422.8a26,26,0,0,0-16.41-8.66s-6.23,6.83-11.18,6.11-.81-6.62-.81-6.62c-8.94-.53-16.27,5.7-20.34,10.17A30.79,30.79,0,0,0,714.24,435.25Z" transform="translate(-279.92 -169.56)"/></g><g class="cls-39"><circle class="cls-24" cx="167.32" cy="361.91" r="30.84"/><path class="cls-34" d="M445.17,510.46a4.73,4.73,0,0,0-6.64,2.59c-3.29-.11-2.65,2.66-2.65,2.66s-2.72,1.15-2.83,3.58,7,14.6,7,14.6l15.19-12.58s2.76-1.21,3.11-2.25c.51-3.47-1.95-3.66-1.95-3.66s2.07-5.22-4.33-7.43C447.91,506.52,445.17,510.46,445.17,510.46Z" transform="translate(-279.92 -169.56)"/><path class="cls-35" d="M437.66,523.67c.81-1.85,4.16,0,4.16,0a8.85,8.85,0,0,0-.41-6.69,7.62,7.62,0,0,0,9.07-1.33c1.84,3.23,5.37,1.38,5.37,1.38s.46-.74,0,8.32c-.37,7.08-3.4,8.77-4.72,9.17h0a2.76,2.76,0,0,1-.6.12,11.86,11.86,0,0,0,0,4.28c.15,1,.32,1.78.32,1.78,6.18,3.17-.52,10.1-.52,10.1s-13.73-5.2-12.12-7.85,2.2-15.35,2.2-15.35C437.55,527.71,436.86,525.52,437.66,523.67Z" transform="translate(-279.92 -169.56)"/><path class="cls-36" d="M450.53,534.64a11.86,11.86,0,0,0,0,4.28s-6.64-2.51-7.89-7.94A6.8,6.8,0,0,0,450.53,534.64Z" transform="translate(-279.92 -169.56)"/><circle cx="174.46" cy="353.08" r="0.68"/><circle cx="168.37" cy="353.76" r="0.68"/><path class="cls-9" d="M450.12,530c-1.73,0-2.79-2.57-1.58-1.87.95.55,2.71.23,3.41.07a.19.19,0,0,1,.21.24A1.84,1.84,0,0,1,450.12,530Z" transform="translate(-279.92 -169.56)"/><path class="cls-37" d="M449.76,527.37v-.3c.63,0,1.7-.07,1.88-.43.07-.13,0-.32-.2-.56-1.15-1.4-.35-4.75-.31-4.89l.29.07s-.8,3.35.25,4.63c.28.34.36.64.23.89-.26.53-1.43.59-1.93.59Z" transform="translate(-279.92 -169.56)"/><path class="cls-38" d="M447.24,562.31a30.78,30.78,0,0,1-24.76-12.45,26,26,0,0,1,16.41-8.65s6.23,6.83,11.18,6.11.81-6.62.81-6.62c8.93-.53,16.27,5.69,20.34,10.16A30.81,30.81,0,0,1,447.24,562.31Z" transform="translate(-279.92 -169.56)"/><path class="cls-40" d="M450.42,520.89c-3.2-.94-4.21.45-4.21.45" transform="translate(-279.92 -169.56)"/><path class="cls-41" d="M455.29,519.64c-2.09-.42-2.47.55-2.47.55" transform="translate(-279.92 -169.56)"/></g><g class="cls-42"><circle class="cls-24" cx="236.01" cy="30.84" r="30.84"/><path class="cls-34" d="M505.08,188.08c-3,6.25,6.8,14.34,6.8,14.34S525.34,188,521.53,183s-11.62,3.57-11.62,3.57S506.51,185.14,505.08,188.08Z" transform="translate(-279.92 -169.56)"/><path class="cls-43" d="M524.09,209.85l-3.7,6.5s-11.28-5.66-10.31-7.21.79-11.71.79-11.71c-2.47.21-3.61-1.25-2.89-3.1s3.23,0,3.23,0v-4.66c9.31-.63,10-2.56,10-2.56s.58,2.77,2.09,8.85-3.27,6.46-3.27,6.46l.09,3,.08,2.29Z" transform="translate(-279.92 -169.56)"/><path class="cls-44" d="M520.15,205.38s-5.09-1.83-6-5a7,7,0,0,0,5.9,2Z" transform="translate(-279.92 -169.56)"/><path class="cls-45" d="M514,192.31s.82-1.28,3.43-.42" transform="translate(-279.92 -169.56)"/><path class="cls-45" d="M519.4,191.26s.31-1.37,2-.77" transform="translate(-279.92 -169.56)"/><path class="cls-46" d="M519,191.77s-.37,2.07.76,2.78,1.65,1.53.77,1.67l-.88.14" transform="translate(-279.92 -169.56)"/><path class="cls-9" d="M518.55,197.67a4.69,4.69,0,0,0,2.87-.35c1-.68,0,1.39-1,1.42S518.67,198.32,518.55,197.67Z" transform="translate(-279.92 -169.56)"/><ellipse cx="516.22" cy="193.07" rx="0.49" ry="0.55" transform="translate(-311.83 -34.04) rotate(-14.51)"/><ellipse cx="520.67" cy="191.95" rx="0.48" ry="0.55" transform="translate(-304.74 -79.52) rotate(-9.65)"/><path class="cls-32" d="M515.93,231.25a30.83,30.83,0,0,0,26.7-15.41c-12-9.26-22.4-8.17-22.4-8.17,2.6,3.08,1.31,4.94.28,5.35-6.81,1.74-10-5.57-10-5.57-9.33.83-15,7.76-18.06,13A30.76,30.76,0,0,0,515.93,231.25Z" transform="translate(-279.92 -169.56)"/><path class="cls-47" d="M519.6,231,511,221.67l5.86,9.56C517.75,231.2,518.68,231.13,519.6,231Z" transform="translate(-279.92 -169.56)"/></g><g class="cls-48"><circle class="cls-24" cx="330.23" cy="114.91" r="30.49"/><path class="cls-34" d="M612.83,269.76s-9.45-6.57-12-.83,13.66,16.58,13.66,16.58,7.65-10,3.32-15.34C615.79,267.66,612.83,269.76,612.83,269.76Z" transform="translate(-279.92 -169.56)"/><path class="cls-43" d="M607.63,292.43l-.44-2.22-.57-2.87s-4.69.71-4.6-5.48,0-9,0-9,1.13,1.7,10.23.22l1,4.48s2-2.34,3.11-.72.35,3.28-2.09,3.63c0,0,2.12,9.82,3.4,11.09s-8.32,9.26-8.32,9.26l-5-5.43Z" transform="translate(-279.92 -169.56)"/><path class="cls-44" d="M606.62,287.34a6.94,6.94,0,0,0,5.22-3.29c-.15,3.25-4.65,6.16-4.65,6.16Z" transform="translate(-279.92 -169.56)"/><path class="cls-49" d="M610.17,276.24" transform="translate(-279.92 -169.56)"/><path class="cls-49" d="M606.77,276.62" transform="translate(-279.92 -169.56)"/><path class="cls-50" d="M605.64,281.41l-.88.06c-.87.07-.57-.84.37-1.78s.11-2.85.11-2.85" transform="translate(-279.92 -169.56)"/><path class="cls-9" d="M606,284.77c-1.3.28-3-1.42-1.58-1.07a7.76,7.76,0,0,0,3.67-.51C608.05,283.85,607.26,284.5,606,284.77Z" transform="translate(-279.92 -169.56)"/><ellipse cx="608.22" cy="277.47" rx="0.55" ry="0.48" transform="translate(36.1 709.19) rotate(-88.6)"/><ellipse cx="603.68" cy="277.39" rx="0.47" ry="0.55" transform="translate(-295.57 -132.59) rotate(-3.46)"/><path class="cls-29" d="M617.07,314.17a30.49,30.49,0,0,1-29.17-8.85c9.5-11.61,19.73-12.89,19.73-12.89-1.81,3.55-.15,5.05.94,5.21,6.94.15,8.37-7.6,8.37-7.6,9.17-1.29,16.23,4.09,20.29,8.42A30.44,30.44,0,0,1,617.07,314.17Z" transform="translate(-279.92 -169.56)"/><path class="cls-51" d="M613.48,314.77l6.23-10.94-3.49,10.51C615.3,314.53,614.39,314.67,613.48,314.77Z" transform="translate(-279.92 -169.56)"/><path d="M603,280.68a3,3,0,1,1,2.68-3.27A3,3,0,0,1,603,280.68Zm-.56-5.69a2.72,2.72,0,1,0,3,2.45A2.73,2.73,0,0,0,602.47,275Z" transform="translate(-279.92 -169.56)"/><path d="M610.06,280.5a3,3,0,1,1,2.69-3.27A3,3,0,0,1,610.06,280.5Zm-.55-5.69a2.72,2.72,0,1,0,3,2.45A2.72,2.72,0,0,0,609.51,274.81Z" transform="translate(-279.92 -169.56)"/><rect x="605.61" y="277.56" width="1.31" height="0.27" transform="translate(-304.1 -109.14) rotate(-5.59)"/><rect x="612.41" y="276.17" width="3.26" height="0.27" transform="translate(-324.68 -32.43) rotate(-12.3)"/></g><ellipse class="cls-24" cx="408.34" cy="288.56" rx="30.02" ry="29.88" transform="translate(-264.71 427.96) rotate(-73.41)"/><path class="cls-52" d="M404.88,266.12c-4.89,3-5.28,10.23-3.9,14.17s2,7.82,1.49,8.87,16.82-12.79,16.82-12.79,4.76-3.27,1.71-7.74c0,0-.55,3-1.95,2.64S411.59,261.94,404.88,266.12Z" transform="translate(-279.92 -169.56)"/><path class="cls-53" d="M411,298.14s4,2.5,3.49,6.62a36.13,36.13,0,0,1-2.86,9.18l-2.82-4.47Z" transform="translate(-279.92 -169.56)"/><path class="cls-54" d="M398.14,295.29l4.33-6.13,3.28-5.89c-2-1-2.92-3.19-1.27-4.69,2.49-2.25,4,1.71,4,1.71,2.83,2,10.59-4.55,10.59-4.55.55.48,1.13,3.6.93,5-.14,1.1.81,3.82,1.25,5a.34.34,0,0,1-.38.46l-.79-.14c-1.66,10.91-7.42,7.14-7.42,7.14l-.71,3-4,16.34Z" transform="translate(-279.92 -169.56)"/><path class="cls-55" d="M412,296.18a12.55,12.55,0,0,1-3.54-8,11.42,11.42,0,0,0,4.25,5Z" transform="translate(-279.92 -169.56)"/><ellipse class="cls-56" cx="417.32" cy="281.81" rx="0.89" ry="0.88" transform="translate(-251.83 431.72) rotate(-73.41)"/><path class="cls-9" d="M418.37,287.68a5.15,5.15,0,0,1-2.64-1.51s-.19,1.25,1.44,2.41C418.3,289.39,418.37,287.68,418.37,287.68Z" transform="translate(-279.92 -169.56)"/><path d="M414.52,280.21h0a.17.17,0,0,1,0-.23c.06-.05,1.31-1.39,4.23.14a.15.15,0,0,1,.07.21.16.16,0,0,1-.22.07c-2.68-1.41-3.79-.25-3.84-.2A.17.17,0,0,1,414.52,280.21Z" transform="translate(-279.92 -169.56)"/><polygon class="cls-57" points="112.07 123.9 120.03 123.97 128.84 139.91 123.65 144.39 112.07 123.9"/><path class="cls-14" d="M429.17,310a43.86,43.86,0,0,0-12.46-12.12l-9.86-4.2c-12.74-5.88-22,5.72-24.61,9.55A29.74,29.74,0,0,0,417.81,317l.59-1.52.91,1A30.15,30.15,0,0,0,429.17,310Z" transform="translate(-279.92 -169.56)"/></svg>