<svg xmlns="http://www.w3.org/2000/svg" width="42.542" height="42.542" viewBox="0 0 42.542 42.542"><defs><style>.a{fill:#09b0b7;fill-rule:evenodd;}</style></defs><path class="a" d="M21.771,3.539A18.232,18.232,0,1,0,40,21.771,18.232,18.232,0,0,0,21.771,3.539ZM.5,21.771A21.271,21.271,0,1,1,21.771,43.042,21.271,21.271,0,0,1,.5,21.771ZM33.48,14.3a1.519,1.519,0,0,1,0,2.149L19.522,30.422a1.519,1.519,0,0,1-2.15,0L10.06,23.1a1.519,1.519,0,1,1,2.15-2.147L18.447,27.2,31.331,14.3A1.519,1.519,0,0,1,33.48,14.3Z" transform="translate(-0.5 -0.5)"/></svg>