<svg xmlns="http://www.w3.org/2000/svg" viewBox="0 0 316 316" width="316" height="316">
	<defs>
		<clipPath clipPathUnits="userSpaceOnUse" id="cp1">
			<path d="M1058 -203L2258 -203L2258 517L1058 517Z" />
		</clipPath>
		<clipPath clipPathUnits="userSpaceOnUse" id="cp2">
			<path d="M-442 -203L758 -203L758 517L-442 517Z" />
		</clipPath>
		<clipPath clipPathUnits="userSpaceOnUse" id="cp3">
			<path d="M-1942 -203L-742 -203L-742 517L-1942 517Z" />
		</clipPath>
		<clipPath clipPathUnits="userSpaceOnUse" id="cp4">
			<path d="M1058 -1203L2258 -1203L2258 -483L1058 -483Z" />
		</clipPath>
		<clipPath clipPathUnits="userSpaceOnUse" id="cp5">
			<path d="M-442 -1203L758 -1203L758 -483L-442 -483Z" />
		</clipPath>
		<clipPath clipPathUnits="userSpaceOnUse" id="cp6">
			<path d="M-1942 -1203L-742 -1203L-742 -483L-1942 -483Z" />
		</clipPath>
		<clipPath clipPathUnits="userSpaceOnUse" id="cp7">
			<path d="M1058 -2203L2258 -2203L2258 -1483L1058 -1483Z" />
		</clipPath>
		<clipPath clipPathUnits="userSpaceOnUse" id="cp8">
			<path d="M-442 -2203L758 -2203L758 -1483L-442 -1483Z" />
		</clipPath>
		<clipPath clipPathUnits="userSpaceOnUse" id="cp9">
			<path d="M-1942 -2203L-742 -2203L-742 -1483L-1942 -1483Z" />
		</clipPath>
	</defs>
	<style>
		tspan { white-space:pre }
		.shp0 { fill: #ffffff } 
		.shp1 { fill: #ffffff } 
		.shp2 { fill: #ffffff } 
	</style>
	<g id="mark-teal" clip-path="url(#cp1)">
		<g id="cv-mark">
			<path id="Oval 2" fill-rule="evenodd" class="shp0" d="M1658 312.62C1572.05 312.62 1502.37 242.95 1502.37 157C1502.37 71.05 1572.05 1.37 1658 1.37C1743.95 1.37 1813.62 71.05 1813.62 157C1813.62 242.95 1743.95 312.62 1658 312.62ZM1658 301.38C1737.74 301.38 1802.38 236.74 1802.38 157C1802.38 77.26 1737.74 12.63 1658 12.63C1578.26 12.63 1513.63 77.26 1513.63 157C1513.63 236.74 1578.26 301.38 1658 301.38Z" />
			<path id="Path 3" class="shp0" d="M1511.75 117.63L1511.75 106.38C1535.38 106.38 1555.76 113.82 1573.68 127.78C1588.16 139.05 1600.42 153.9 1612.93 173.68C1615.96 178.47 1618.95 183.45 1622.41 189.43C1624.22 192.54 1630.04 202.72 1630.88 204.17C1637.44 215.55 1641.63 222.11 1645.76 227.14C1650.65 233.08 1654.7 235.75 1658.3 235.75C1661.98 235.75 1666.12 232.96 1671.13 226.73C1675.19 221.68 1679.28 215.17 1685.75 203.84C1686.36 202.79 1692.23 192.44 1694.06 189.25C1697.45 183.36 1700.39 178.43 1703.36 173.7C1715.78 153.91 1727.98 139.06 1742.41 127.78C1760.27 113.82 1780.62 106.38 1804.25 106.38L1804.25 117.63C1783.21 117.63 1765.27 124.19 1749.34 136.65C1736.1 146.99 1724.68 160.9 1712.89 179.68C1710 184.28 1707.14 189.09 1703.81 194.86C1702 198.02 1696.14 208.35 1695.52 209.43C1688.76 221.25 1684.44 228.12 1679.9 233.77C1672.97 242.4 1666.15 247 1658.3 247C1650.62 247 1643.88 242.57 1637.07 234.28C1632.42 228.64 1627.99 221.69 1621.13 209.8C1620.28 208.32 1614.46 198.14 1612.68 195.07C1609.28 189.21 1606.36 184.34 1603.42 179.69C1591.55 160.91 1580.05 147 1566.77 136.65C1550.77 124.19 1532.79 117.63 1511.75 117.63Z" />
			<path id="Oval 3 Copy 2" fill-rule="evenodd" class="shp0" d="M1658 147.63C1637.29 147.63 1620.5 130.84 1620.5 110.13C1620.5 89.41 1637.29 72.63 1658 72.63C1670.2 72.63 1681.04 78.45 1687.89 87.47L1679.82 95.53C1675.11 88.5 1667.1 83.88 1658 83.88C1643.5 83.88 1631.75 95.63 1631.75 110.13C1631.75 124.62 1643.5 136.38 1658 136.38C1667.1 136.38 1675.11 131.75 1679.82 124.72L1687.89 132.78C1681.04 141.8 1670.2 147.63 1658 147.63Z" />
		</g>
	</g>
	<g id="mark-black" clip-path="url(#cp2)">
		<g id="cv-mark">
			<path id="Oval 2" fill-rule="evenodd" class="shp0" d="M159 312.62C73.05 312.62 3.38 242.95 3.38 157C3.38 71.05 73.05 1.37 159 1.37C244.95 1.37 314.63 71.05 314.63 157C314.63 242.95 244.95 312.62 159 312.62ZM159 301.38C238.74 301.38 303.38 236.74 303.38 157C303.38 77.26 238.74 12.63 159 12.63C79.26 12.63 14.63 77.26 14.63 157C14.63 236.74 79.26 301.38 159 301.38Z" />
			<path id="Path 3" class="shp0" d="M11.75 117.63L11.75 106.38C35.38 106.38 55.76 113.82 73.68 127.78C88.16 139.05 100.42 153.9 112.93 173.68C115.96 178.47 118.95 183.45 122.41 189.43C124.22 192.54 130.04 202.72 130.88 204.17C137.44 215.55 141.63 222.11 145.76 227.14C150.65 233.08 154.7 235.75 158.3 235.75C161.98 235.75 166.12 232.96 171.13 226.73C175.19 221.68 179.28 215.17 185.75 203.84C186.36 202.79 192.23 192.44 194.06 189.25C197.45 183.36 200.39 178.43 203.36 173.7C215.78 153.91 227.98 139.06 242.41 127.78C260.27 113.82 280.62 106.38 304.25 106.38L304.25 117.63C283.21 117.63 265.27 124.19 249.34 136.65C236.1 146.99 224.68 160.9 212.89 179.68C210 184.28 207.14 189.09 203.81 194.86C202 198.02 196.14 208.35 195.52 209.43C188.76 221.25 184.44 228.12 179.9 233.77C172.97 242.4 166.15 247 158.3 247C150.62 247 143.88 242.57 137.07 234.28C132.42 228.64 127.99 221.69 121.13 209.8C120.28 208.32 114.46 198.14 112.68 195.07C109.28 189.21 106.36 184.34 103.42 179.69C91.55 160.91 80.05 147 66.77 136.65C50.77 124.19 32.79 117.63 11.75 117.63Z" />
			<path id="Oval 3 Copy 2" fill-rule="evenodd" class="shp0" d="M158 147.63C137.29 147.63 120.5 130.84 120.5 110.13C120.5 89.41 137.29 72.63 158 72.63C170.2 72.63 181.04 78.45 187.89 87.47L179.82 95.53C175.11 88.5 167.1 83.88 158 83.88C143.5 83.88 131.75 95.63 131.75 110.13C131.75 124.62 143.5 136.38 158 136.38C167.1 136.38 175.11 131.75 179.82 124.72L187.89 132.78C181.04 141.8 170.2 147.63 158 147.63Z" />
		</g>
	</g>
	<g id="mark-green" clip-path="url(#cp3)">
		<g id="cv-mark">
			<path id="Oval 2" fill-rule="evenodd" class="shp0" d="M-1342 312.62C-1427.95 312.62 -1497.63 242.95 -1497.63 157C-1497.63 71.05 -1427.95 1.37 -1342 1.37C-1256.05 1.37 -1186.38 71.05 -1186.38 157C-1186.38 242.95 -1256.05 312.62 -1342 312.62ZM-1342 301.38C-1262.26 301.38 -1197.63 236.74 -1197.63 157C-1197.63 77.26 -1262.26 12.63 -1342 12.63C-1421.74 12.63 -1486.38 77.26 -1486.38 157C-1486.38 236.74 -1421.74 301.38 -1342 301.38Z" />
			<path id="Path 3" class="shp0" d="M-1488.25 117.63L-1488.25 106.38C-1464.62 106.38 -1444.24 113.82 -1426.32 127.78C-1411.84 139.05 -1399.58 153.9 -1387.07 173.68C-1384.04 178.47 -1381.05 183.45 -1377.59 189.43C-1375.78 192.54 -1369.96 202.72 -1369.12 204.17C-1362.56 215.55 -1358.37 222.11 -1354.24 227.14C-1349.35 233.08 -1345.3 235.75 -1341.7 235.75C-1338.02 235.75 -1333.88 232.96 -1328.87 226.73C-1324.81 221.68 -1320.72 215.17 -1314.25 203.84C-1313.64 202.79 -1307.77 192.44 -1305.94 189.25C-1302.55 183.36 -1299.61 178.43 -1296.64 173.7C-1284.22 153.91 -1272.02 139.06 -1257.59 127.78C-1239.73 113.82 -1219.38 106.38 -1195.75 106.38L-1195.75 117.63C-1216.79 117.63 -1234.73 124.19 -1250.66 136.65C-1263.9 146.99 -1275.32 160.9 -1287.11 179.68C-1290 184.28 -1292.86 189.09 -1296.19 194.86C-1298 198.02 -1303.86 208.35 -1304.48 209.43C-1311.24 221.25 -1315.56 228.12 -1320.1 233.77C-1327.03 242.4 -1333.85 247 -1341.7 247C-1349.38 247 -1356.12 242.57 -1362.93 234.28C-1367.58 228.64 -1372.01 221.69 -1378.87 209.8C-1379.72 208.32 -1385.54 198.14 -1387.32 195.07C-1390.72 189.21 -1393.64 184.34 -1396.58 179.69C-1408.45 160.91 -1419.95 147 -1433.23 136.65C-1449.23 124.19 -1467.21 117.63 -1488.25 117.63Z" />
			<path id="Oval 3 Copy 2" fill-rule="evenodd" class="shp0" d="M-1342 147.63C-1362.71 147.63 -1379.5 130.84 -1379.5 110.13C-1379.5 89.41 -1362.71 72.63 -1342 72.63C-1329.8 72.63 -1318.96 78.45 -1312.11 87.47L-1320.18 95.53C-1324.89 88.5 -1332.9 83.88 -1342 83.88C-1356.5 83.88 -1368.25 95.63 -1368.25 110.13C-1368.25 124.62 -1356.5 136.38 -1342 136.38C-1332.9 136.38 -1324.89 131.75 -1320.18 124.72L-1312.11 132.78C-1318.96 141.8 -1329.8 147.63 -1342 147.63Z" />
		</g>
	</g>
	<g id="logo-2-teal" clip-path="url(#cp4)">
		<path id="campervan.cz copy 2" fill-rule="evenodd" class="shp1" d="M1234.42 -820.45C1225.06 -820.45 1217.65 -823.53 1212.19 -829.68C1206.73 -835.83 1204 -844.33 1204 -855.16C1204 -865.91 1206.79 -874.4 1212.38 -880.64C1217.98 -886.88 1225.41 -890 1234.68 -890C1248.81 -890 1257.91 -883.98 1261.98 -871.93L1247.81 -867.12C1245.56 -872.93 1241.22 -875.83 1234.81 -875.83C1229.87 -875.83 1226.04 -873.97 1223.3 -870.24C1220.57 -866.51 1219.21 -861.49 1219.21 -855.16C1219.21 -848.83 1220.57 -843.85 1223.3 -840.21C1226.04 -836.57 1229.78 -834.75 1234.55 -834.75C1241.48 -834.75 1246.03 -838 1248.2 -844.5L1262.37 -840.08C1258.38 -826.99 1249.07 -820.45 1234.42 -820.45ZM1302.13 -820.45C1294.85 -820.45 1288.94 -822.36 1284.39 -826.17C1279.83 -829.98 1277.56 -835.44 1277.56 -842.55C1277.56 -849.74 1280.16 -855.2 1285.36 -858.93C1290.56 -862.66 1296.8 -864.52 1304.08 -864.52C1310.41 -864.52 1315.91 -863.35 1320.59 -861.01L1320.59 -864.91C1320.59 -872.88 1316.21 -876.87 1307.46 -876.87C1300.18 -876.87 1293.16 -874.62 1286.4 -870.11L1281.85 -882.33C1289.91 -887.44 1298.88 -890 1308.76 -890C1326.35 -890 1335.15 -881.68 1335.15 -865.04L1335.15 -822.01L1320.59 -822.01L1320.59 -827.21C1315.91 -822.7 1309.76 -820.45 1302.13 -820.45ZM1304.86 -833.58C1311.1 -833.58 1316.34 -835.79 1320.59 -840.21L1320.59 -848.79C1316.6 -850.78 1311.88 -851.78 1306.42 -851.78C1302.26 -851.78 1298.82 -851 1296.08 -849.44C1293.35 -847.88 1291.99 -845.58 1291.99 -842.55C1291.99 -839.86 1293.12 -837.7 1295.37 -836.05C1297.62 -834.4 1300.79 -833.58 1304.86 -833.58ZM1409.35 -890C1414.9 -890 1418.99 -888.07 1421.63 -884.22C1424.28 -880.36 1425.6 -873.88 1425.6 -864.78L1425.6 -822.01L1411.95 -822.01L1411.95 -862.57C1411.95 -867.25 1411.52 -870.61 1410.65 -872.65C1409.78 -874.68 1408.18 -875.7 1405.84 -875.7C1403.59 -875.7 1401.79 -874.53 1400.44 -872.19C1399.1 -869.85 1398.43 -866.6 1398.43 -862.44L1398.43 -822.01L1384.78 -822.01L1384.78 -862.96C1384.78 -871.45 1382.7 -875.7 1378.54 -875.7C1376.11 -875.7 1374.19 -874.53 1372.75 -872.19C1371.32 -869.85 1370.61 -866.6 1370.61 -862.44L1370.61 -822.01L1356.96 -822.01L1356.96 -888.44L1369.7 -888.44L1369.7 -879.6C1372.13 -886.53 1376.5 -890 1382.83 -890C1385.6 -890 1388.05 -889.05 1390.17 -887.14C1392.3 -885.23 1393.79 -882.98 1394.66 -880.38C1398.65 -886.79 1403.54 -890 1409.35 -890ZM1446.76 -795.88L1446.76 -888.44L1461.71 -888.44L1461.71 -883.37C1465.78 -887.79 1471.2 -890 1477.96 -890C1486.89 -890 1493.97 -886.92 1499.21 -880.77C1504.46 -874.62 1507.08 -866.08 1507.08 -855.16C1507.08 -844.5 1504.37 -836.05 1498.95 -829.81C1493.54 -823.57 1486.58 -820.45 1478.09 -820.45C1471.16 -820.45 1465.7 -822.75 1461.71 -827.34L1461.71 -802.77L1446.76 -795.88ZM1475.88 -834.75C1480.99 -834.75 1484.96 -836.5 1487.78 -840.01C1490.59 -843.53 1492 -848.57 1492 -855.16C1492 -861.49 1490.59 -866.51 1487.78 -870.24C1484.96 -873.97 1480.95 -875.83 1475.75 -875.83C1469.51 -875.83 1464.83 -873.62 1461.71 -869.2L1461.71 -841.38C1464.83 -836.96 1469.55 -834.75 1475.88 -834.75ZM1584.73 -858.54C1584.73 -854.73 1584.56 -851.69 1584.21 -849.44L1538.97 -849.44C1539.92 -844.59 1541.85 -840.75 1544.76 -837.93C1547.66 -835.12 1551.41 -833.71 1556 -833.71C1561.81 -833.71 1566.7 -835.88 1570.69 -840.21L1579.66 -830.72C1573.42 -823.87 1565.49 -820.45 1555.87 -820.45C1546.08 -820.45 1538.34 -823.61 1532.66 -829.94C1526.99 -836.27 1524.15 -844.72 1524.15 -855.29C1524.15 -866.04 1527.01 -874.51 1532.73 -880.7C1538.45 -886.9 1546.16 -890 1555.87 -890C1564.36 -890 1571.3 -887.34 1576.67 -882.01C1582.04 -876.67 1584.73 -868.85 1584.73 -858.54ZM1538.84 -862.18L1570.04 -862.18C1569.61 -867.03 1568.07 -870.69 1565.43 -873.16C1562.78 -875.64 1559.6 -876.87 1555.87 -876.87C1551.1 -876.87 1547.27 -875.57 1544.37 -872.97C1541.46 -870.37 1539.62 -866.77 1538.84 -862.18ZM1653.81 -890C1659.79 -890 1664.99 -888.83 1669.41 -886.49L1669.41 -861.92L1654.85 -861.92L1654.85 -876.09L1653.55 -876.09C1646.7 -876.09 1641.42 -874.49 1637.69 -871.28C1633.96 -868.07 1632.1 -863.26 1632.1 -856.85L1632.1 -835.14L1650.69 -835.14L1650.69 -822.01L1603.11 -822.01L1603.11 -835.14L1617.15 -835.14L1617.15 -875.31L1603.11 -875.31L1603.11 -888.44L1631.06 -888.44L1631.06 -877.78C1632.88 -881.59 1635.87 -884.58 1640.03 -886.75C1644.19 -888.92 1648.78 -890 1653.81 -890ZM1710.32 -822.01L1684.45 -888.44L1700.44 -888.44L1715.78 -846.32C1716.73 -843.37 1717.38 -840.99 1717.73 -839.17C1718.16 -841.51 1718.81 -843.89 1719.68 -846.32L1734.89 -888.44L1750.75 -888.44L1724.88 -822.01L1710.32 -822.01ZM1787.61 -820.45C1780.33 -820.45 1774.42 -822.36 1769.86 -826.17C1765.31 -829.98 1763.04 -835.44 1763.04 -842.55C1763.04 -849.74 1765.64 -855.2 1770.84 -858.93C1776.04 -862.66 1782.28 -864.52 1789.56 -864.52C1795.89 -864.52 1801.39 -863.35 1806.07 -861.01L1806.07 -864.91C1806.07 -872.88 1801.69 -876.87 1792.94 -876.87C1785.66 -876.87 1778.64 -874.62 1771.88 -870.11L1767.33 -882.33C1775.39 -887.44 1784.36 -890 1794.24 -890C1811.83 -890 1820.63 -881.68 1820.63 -865.04L1820.63 -822.01L1806.07 -822.01L1806.07 -827.21C1801.39 -822.7 1795.24 -820.45 1787.61 -820.45ZM1789.34 -833.58C1795.58 -833.58 1800.82 -835.79 1805.07 -840.21L1805.07 -848.79C1801.08 -850.78 1796.36 -851.78 1790.9 -851.78C1786.74 -851.78 1783.3 -851 1780.56 -849.44C1777.83 -847.88 1776.47 -845.58 1776.47 -842.55C1776.47 -839.86 1777.6 -837.7 1779.85 -836.05C1782.1 -834.4 1785.27 -833.58 1789.34 -833.58ZM1878.44 -890C1885.72 -890 1891.63 -887.81 1896.19 -883.43C1900.74 -879.06 1903.01 -872.1 1903.01 -862.57L1903.01 -822.01L1888.06 -822.01L1888.06 -859.45C1888.06 -865.17 1886.8 -869.33 1884.29 -871.93C1881.78 -874.53 1878.44 -875.83 1874.28 -875.83C1864.49 -875.83 1859.59 -870.46 1859.59 -859.71L1859.59 -822.01L1844.64 -822.01L1844.64 -888.44L1858.42 -888.44L1858.42 -880.25C1859.72 -882.85 1862.25 -885.12 1866.03 -887.08C1869.8 -889.03 1873.93 -890 1878.44 -890ZM1943.71 -820.32C1940.85 -820.32 1938.45 -821.29 1936.5 -823.25C1934.54 -825.2 1933.57 -827.6 1933.57 -830.46C1933.57 -833.23 1934.54 -835.62 1936.5 -837.61C1938.45 -839.6 1940.85 -840.6 1943.71 -840.6C1946.57 -840.6 1949.02 -839.6 1951.06 -837.61C1953.09 -835.62 1954.11 -833.23 1954.11 -830.46C1954.11 -827.69 1953.11 -825.3 1951.12 -823.31C1949.13 -821.32 1946.66 -820.32 1943.71 -820.32ZM2009.22 -820.45C1999.86 -820.45 1992.45 -823.53 1986.99 -829.68C1981.53 -835.83 1978.8 -844.33 1978.8 -855.16C1978.8 -865.91 1981.59 -874.4 1987.19 -880.64C1992.78 -886.88 2000.21 -890 2009.48 -890C2023.61 -890 2032.71 -883.98 2036.78 -871.93L2022.61 -867.12C2020.36 -872.93 2016.02 -875.83 2009.61 -875.83C2004.67 -875.83 2000.84 -873.97 1998.11 -870.24C1995.37 -866.51 1994.01 -861.49 1994.01 -855.16C1994.01 -848.83 1995.37 -843.85 1998.11 -840.21C2000.84 -836.57 2004.58 -834.75 2009.35 -834.75C2016.28 -834.75 2020.83 -838 2023 -844.5L2037.17 -840.08C2033.18 -826.99 2023.87 -820.45 2009.22 -820.45ZM2056.7 -822.01L2056.7 -833.32L2092.19 -875.05L2059.17 -875.05L2059.17 -888.44L2111.3 -888.44L2111.3 -877.39L2075.81 -835.4L2111.17 -835.4L2111.17 -822.01L2056.7 -822.01Z" />
	</g>
	<g id="logo-2-black" clip-path="url(#cp5)">
		<path id="campervan.cz copy" fill-rule="evenodd" class="shp2" d="M-265.58 -820.45C-274.94 -820.45 -282.35 -823.53 -287.81 -829.68C-293.27 -835.83 -296 -844.33 -296 -855.16C-296 -865.91 -293.21 -874.4 -287.62 -880.64C-282.02 -886.88 -274.59 -890 -265.32 -890C-251.19 -890 -242.09 -883.98 -238.02 -871.93L-252.19 -867.12C-254.44 -872.93 -258.78 -875.83 -265.19 -875.83C-270.13 -875.83 -273.96 -873.97 -276.7 -870.24C-279.43 -866.51 -280.79 -861.49 -280.79 -855.16C-280.79 -848.83 -279.43 -843.85 -276.7 -840.21C-273.96 -836.57 -270.22 -834.75 -265.45 -834.75C-258.52 -834.75 -253.97 -838 -251.8 -844.5L-237.63 -840.08C-241.62 -826.99 -250.93 -820.45 -265.58 -820.45ZM-197.87 -820.45C-205.15 -820.45 -211.06 -822.36 -215.62 -826.17C-220.17 -829.98 -222.44 -835.44 -222.44 -842.55C-222.44 -849.74 -219.84 -855.2 -214.64 -858.93C-209.44 -862.66 -203.2 -864.52 -195.92 -864.52C-189.59 -864.52 -184.09 -863.35 -179.41 -861.01L-179.41 -864.91C-179.41 -872.88 -183.79 -876.87 -192.54 -876.87C-199.82 -876.87 -206.84 -874.62 -213.6 -870.11L-218.15 -882.33C-210.09 -887.44 -201.12 -890 -191.24 -890C-173.65 -890 -164.85 -881.68 -164.85 -865.04L-164.85 -822.01L-179.41 -822.01L-179.41 -827.21C-184.09 -822.7 -190.24 -820.45 -197.87 -820.45ZM-195.14 -833.58C-188.9 -833.58 -183.66 -835.79 -179.41 -840.21L-179.41 -848.79C-183.4 -850.78 -188.12 -851.78 -193.58 -851.78C-197.74 -851.78 -201.18 -851 -203.91 -849.44C-206.65 -847.88 -208.01 -845.58 -208.01 -842.55C-208.01 -839.86 -206.88 -837.7 -204.63 -836.05C-202.38 -834.4 -199.21 -833.58 -195.14 -833.58ZM-90.65 -890C-85.1 -890 -81.01 -888.07 -78.37 -884.22C-75.72 -880.36 -74.4 -873.88 -74.4 -864.78L-74.4 -822.01L-88.05 -822.01L-88.05 -862.57C-88.05 -867.25 -88.48 -870.61 -89.35 -872.65C-90.22 -874.68 -91.82 -875.7 -94.16 -875.7C-96.41 -875.7 -98.21 -874.53 -99.56 -872.19C-100.9 -869.85 -101.57 -866.6 -101.57 -862.44L-101.57 -822.01L-115.22 -822.01L-115.22 -862.96C-115.22 -871.45 -117.3 -875.7 -121.46 -875.7C-123.89 -875.7 -125.81 -874.53 -127.25 -872.19C-128.68 -869.85 -129.39 -866.6 -129.39 -862.44L-129.39 -822.01L-143.04 -822.01L-143.04 -888.44L-130.3 -888.44L-130.3 -879.6C-127.87 -886.53 -123.5 -890 -117.17 -890C-114.4 -890 -111.95 -889.05 -109.83 -887.14C-107.7 -885.23 -106.21 -882.98 -105.34 -880.38C-101.35 -886.79 -96.46 -890 -90.65 -890ZM-53.24 -795.88L-53.24 -888.44L-38.29 -888.44L-38.29 -883.37C-34.22 -887.79 -28.8 -890 -22.04 -890C-13.11 -890 -6.03 -886.92 -0.79 -880.77C4.46 -874.62 7.08 -866.08 7.08 -855.16C7.08 -844.5 4.37 -836.05 -1.05 -829.81C-6.46 -823.57 -13.42 -820.45 -21.91 -820.45C-28.84 -820.45 -34.3 -822.75 -38.29 -827.34L-38.29 -802.77L-53.24 -795.88ZM-24.12 -834.75C-19.01 -834.75 -15.04 -836.5 -12.23 -840.01C-9.41 -843.53 -8 -848.57 -8 -855.16C-8 -861.49 -9.41 -866.51 -12.23 -870.24C-15.04 -873.97 -19.05 -875.83 -24.25 -875.83C-30.49 -875.83 -35.17 -873.62 -38.29 -869.2L-38.29 -841.38C-35.17 -836.96 -30.45 -834.75 -24.12 -834.75ZM84.73 -858.54C84.73 -854.73 84.56 -851.69 84.21 -849.44L38.97 -849.44C39.92 -844.59 41.85 -840.75 44.75 -837.93C47.66 -835.12 51.41 -833.71 56 -833.71C61.81 -833.71 66.7 -835.88 70.69 -840.21L79.66 -830.72C73.42 -823.87 65.49 -820.45 55.87 -820.45C46.08 -820.45 38.34 -823.61 32.66 -829.94C26.99 -836.27 24.15 -844.72 24.15 -855.29C24.15 -866.04 27.01 -874.51 32.73 -880.7C38.45 -886.9 46.16 -890 55.87 -890C64.36 -890 71.3 -887.34 76.67 -882.01C82.04 -876.67 84.73 -868.85 84.73 -858.54ZM38.84 -862.18L70.04 -862.18C69.61 -867.03 68.07 -870.69 65.42 -873.16C62.78 -875.64 59.6 -876.87 55.87 -876.87C51.1 -876.87 47.27 -875.57 44.37 -872.97C41.46 -870.37 39.62 -866.77 38.84 -862.18ZM153.81 -890C159.79 -890 164.99 -888.83 169.41 -886.49L169.41 -861.92L154.85 -861.92L154.85 -876.09L153.55 -876.09C146.7 -876.09 141.42 -874.49 137.69 -871.28C133.96 -868.07 132.1 -863.26 132.1 -856.85L132.1 -835.14L150.69 -835.14L150.69 -822.01L103.11 -822.01L103.11 -835.14L117.15 -835.14L117.15 -875.31L103.11 -875.31L103.11 -888.44L131.06 -888.44L131.06 -877.78C132.88 -881.59 135.87 -884.58 140.03 -886.75C144.19 -888.92 148.78 -890 153.81 -890ZM210.32 -822.01L184.45 -888.44L200.44 -888.44L215.78 -846.32C216.73 -843.37 217.38 -840.99 217.73 -839.17C218.16 -841.51 218.81 -843.89 219.68 -846.32L234.89 -888.44L250.75 -888.44L224.88 -822.01L210.32 -822.01ZM287.61 -820.45C280.33 -820.45 274.42 -822.36 269.86 -826.17C265.31 -829.98 263.04 -835.44 263.04 -842.55C263.04 -849.74 265.64 -855.2 270.84 -858.93C276.04 -862.66 282.28 -864.52 289.56 -864.52C295.89 -864.52 301.39 -863.35 306.07 -861.01L306.07 -864.91C306.07 -872.88 301.69 -876.87 292.94 -876.87C285.66 -876.87 278.64 -874.62 271.88 -870.11L267.33 -882.33C275.39 -887.44 284.36 -890 294.24 -890C311.83 -890 320.63 -881.68 320.63 -865.04L320.63 -822.01L306.07 -822.01L306.07 -827.21C301.39 -822.7 295.24 -820.45 287.61 -820.45ZM289.34 -833.58C295.58 -833.58 300.82 -835.79 305.07 -840.21L305.07 -848.79C301.08 -850.78 296.36 -851.78 290.9 -851.78C286.74 -851.78 283.3 -851 280.57 -849.44C277.83 -847.88 276.47 -845.58 276.47 -842.55C276.47 -839.86 277.6 -837.7 279.85 -836.05C282.1 -834.4 285.27 -833.58 289.34 -833.58ZM378.44 -890C385.72 -890 391.63 -887.81 396.18 -883.43C400.74 -879.06 403.01 -872.1 403.01 -862.57L403.01 -822.01L388.06 -822.01L388.06 -859.45C388.06 -865.17 386.8 -869.33 384.29 -871.93C381.78 -874.53 378.44 -875.83 374.28 -875.83C364.49 -875.83 359.59 -870.46 359.59 -859.71L359.59 -822.01L344.64 -822.01L344.64 -888.44L358.42 -888.44L358.42 -880.25C359.72 -882.85 362.25 -885.12 366.02 -887.08C369.8 -889.03 373.93 -890 378.44 -890ZM443.71 -820.32C440.85 -820.32 438.45 -821.29 436.5 -823.25C434.54 -825.2 433.57 -827.6 433.57 -830.46C433.57 -833.23 434.54 -835.62 436.5 -837.61C438.45 -839.6 440.85 -840.6 443.71 -840.6C446.57 -840.6 449.02 -839.6 451.06 -837.61C453.09 -835.62 454.11 -833.23 454.11 -830.46C454.11 -827.69 453.11 -825.3 451.12 -823.31C449.13 -821.32 446.66 -820.32 443.71 -820.32ZM509.22 -820.45C499.86 -820.45 492.45 -823.53 486.99 -829.68C481.53 -835.83 478.8 -844.33 478.8 -855.16C478.8 -865.91 481.59 -874.4 487.19 -880.64C492.78 -886.88 500.21 -890 509.48 -890C523.61 -890 532.71 -883.98 536.78 -871.93L522.61 -867.12C520.36 -872.93 516.02 -875.83 509.61 -875.83C504.67 -875.83 500.84 -873.97 498.11 -870.24C495.37 -866.51 494.01 -861.49 494.01 -855.16C494.01 -848.83 495.37 -843.85 498.11 -840.21C500.84 -836.57 504.58 -834.75 509.35 -834.75C516.28 -834.75 520.83 -838 523 -844.5L537.17 -840.08C533.18 -826.99 523.87 -820.45 509.22 -820.45ZM556.7 -822.01L556.7 -833.32L592.19 -875.05L559.17 -875.05L559.17 -888.44L611.3 -888.44L611.3 -877.39L575.81 -835.4L611.17 -835.4L611.17 -822.01L556.7 -822.01Z" />
	</g>
	<g id="logo-2-green" clip-path="url(#cp6)">
		<path id="campervan.cz" fill-rule="evenodd" class="shp0" d="M-1765.58 -820.45C-1774.94 -820.45 -1782.35 -823.53 -1787.81 -829.68C-1793.27 -835.83 -1796 -844.33 -1796 -855.16C-1796 -865.91 -1793.21 -874.4 -1787.62 -880.64C-1782.02 -886.88 -1774.59 -890 -1765.32 -890C-1751.19 -890 -1742.09 -883.98 -1738.02 -871.93L-1752.19 -867.12C-1754.44 -872.93 -1758.78 -875.83 -1765.19 -875.83C-1770.13 -875.83 -1773.96 -873.97 -1776.7 -870.24C-1779.43 -866.51 -1780.79 -861.49 -1780.79 -855.16C-1780.79 -848.83 -1779.43 -843.85 -1776.7 -840.21C-1773.96 -836.57 -1770.22 -834.75 -1765.45 -834.75C-1758.52 -834.75 -1753.97 -838 -1751.8 -844.5L-1737.63 -840.08C-1741.62 -826.99 -1750.93 -820.45 -1765.58 -820.45ZM-1697.87 -820.45C-1705.15 -820.45 -1711.06 -822.36 -1715.62 -826.17C-1720.17 -829.98 -1722.44 -835.44 -1722.44 -842.55C-1722.44 -849.74 -1719.84 -855.2 -1714.64 -858.93C-1709.44 -862.66 -1703.2 -864.52 -1695.92 -864.52C-1689.59 -864.52 -1684.09 -863.35 -1679.41 -861.01L-1679.41 -864.91C-1679.41 -872.88 -1683.79 -876.87 -1692.54 -876.87C-1699.82 -876.87 -1706.84 -874.62 -1713.6 -870.11L-1718.15 -882.33C-1710.09 -887.44 -1701.12 -890 -1691.24 -890C-1673.65 -890 -1664.85 -881.68 -1664.85 -865.04L-1664.85 -822.01L-1679.41 -822.01L-1679.41 -827.21C-1684.09 -822.7 -1690.24 -820.45 -1697.87 -820.45ZM-1695.14 -833.58C-1688.9 -833.58 -1683.66 -835.79 -1679.41 -840.21L-1679.41 -848.79C-1683.4 -850.78 -1688.12 -851.78 -1693.58 -851.78C-1697.74 -851.78 -1701.18 -851 -1703.91 -849.44C-1706.65 -847.88 -1708.01 -845.58 -1708.01 -842.55C-1708.01 -839.86 -1706.88 -837.7 -1704.63 -836.05C-1702.38 -834.4 -1699.21 -833.58 -1695.14 -833.58ZM-1590.65 -890C-1585.1 -890 -1581.01 -888.07 -1578.37 -884.22C-1575.72 -880.36 -1574.4 -873.88 -1574.4 -864.78L-1574.4 -822.01L-1588.05 -822.01L-1588.05 -862.57C-1588.05 -867.25 -1588.48 -870.61 -1589.35 -872.65C-1590.22 -874.68 -1591.82 -875.7 -1594.16 -875.7C-1596.41 -875.7 -1598.21 -874.53 -1599.56 -872.19C-1600.9 -869.85 -1601.57 -866.6 -1601.57 -862.44L-1601.57 -822.01L-1615.22 -822.01L-1615.22 -862.96C-1615.22 -871.45 -1617.3 -875.7 -1621.46 -875.7C-1623.89 -875.7 -1625.81 -874.53 -1627.24 -872.19C-1628.68 -869.85 -1629.39 -866.6 -1629.39 -862.44L-1629.39 -822.01L-1643.04 -822.01L-1643.04 -888.44L-1630.3 -888.44L-1630.3 -879.6C-1627.87 -886.53 -1623.5 -890 -1617.17 -890C-1614.4 -890 -1611.95 -889.05 -1609.83 -887.14C-1607.7 -885.23 -1606.21 -882.98 -1605.34 -880.38C-1601.35 -886.79 -1596.46 -890 -1590.65 -890ZM-1553.24 -795.88L-1553.24 -888.44L-1538.29 -888.44L-1538.29 -883.37C-1534.22 -887.79 -1528.8 -890 -1522.04 -890C-1513.11 -890 -1506.03 -886.92 -1500.79 -880.77C-1495.54 -874.62 -1492.92 -866.08 -1492.92 -855.16C-1492.92 -844.5 -1495.63 -836.05 -1501.05 -829.81C-1506.46 -823.57 -1513.42 -820.45 -1521.91 -820.45C-1528.84 -820.45 -1534.3 -822.75 -1538.29 -827.34L-1538.29 -802.77L-1553.24 -795.88ZM-1524.12 -834.75C-1519.01 -834.75 -1515.04 -836.5 -1512.23 -840.01C-1509.41 -843.53 -1508 -848.57 -1508 -855.16C-1508 -861.49 -1509.41 -866.51 -1512.23 -870.24C-1515.04 -873.97 -1519.05 -875.83 -1524.25 -875.83C-1530.49 -875.83 -1535.17 -873.62 -1538.29 -869.2L-1538.29 -841.38C-1535.17 -836.96 -1530.45 -834.75 -1524.12 -834.75ZM-1415.27 -858.54C-1415.27 -854.73 -1415.44 -851.69 -1415.79 -849.44L-1461.03 -849.44C-1460.08 -844.59 -1458.15 -840.75 -1455.25 -837.93C-1452.34 -835.12 -1448.59 -833.71 -1444 -833.71C-1438.19 -833.71 -1433.3 -835.88 -1429.31 -840.21L-1420.34 -830.72C-1426.58 -823.87 -1434.51 -820.45 -1444.13 -820.45C-1453.92 -820.45 -1461.66 -823.61 -1467.34 -829.94C-1473.01 -836.27 -1475.85 -844.72 -1475.85 -855.29C-1475.85 -866.04 -1472.99 -874.51 -1467.27 -880.7C-1461.55 -886.9 -1453.84 -890 -1444.13 -890C-1435.64 -890 -1428.7 -887.34 -1423.33 -882.01C-1417.96 -876.67 -1415.27 -868.85 -1415.27 -858.54ZM-1461.16 -862.18L-1429.96 -862.18C-1430.39 -867.03 -1431.93 -870.69 -1434.58 -873.16C-1437.22 -875.64 -1440.4 -876.87 -1444.13 -876.87C-1448.9 -876.87 -1452.73 -875.57 -1455.63 -872.97C-1458.54 -870.37 -1460.38 -866.77 -1461.16 -862.18ZM-1346.19 -890C-1340.21 -890 -1335.01 -888.83 -1330.59 -886.49L-1330.59 -861.92L-1345.15 -861.92L-1345.15 -876.09L-1346.45 -876.09C-1353.3 -876.09 -1358.58 -874.49 -1362.31 -871.28C-1366.04 -868.07 -1367.9 -863.26 -1367.9 -856.85L-1367.9 -835.14L-1349.31 -835.14L-1349.31 -822.01L-1396.89 -822.01L-1396.89 -835.14L-1382.85 -835.14L-1382.85 -875.31L-1396.89 -875.31L-1396.89 -888.44L-1368.94 -888.44L-1368.94 -877.78C-1367.12 -881.59 -1364.13 -884.58 -1359.97 -886.75C-1355.81 -888.92 -1351.22 -890 -1346.19 -890ZM-1289.68 -822.01L-1315.55 -888.44L-1299.56 -888.44L-1284.22 -846.32C-1283.27 -843.37 -1282.62 -840.99 -1282.27 -839.17C-1281.84 -841.51 -1281.19 -843.89 -1280.32 -846.32L-1265.11 -888.44L-1249.25 -888.44L-1275.12 -822.01L-1289.68 -822.01ZM-1212.39 -820.45C-1219.67 -820.45 -1225.58 -822.36 -1230.14 -826.17C-1234.69 -829.98 -1236.96 -835.44 -1236.96 -842.55C-1236.96 -849.74 -1234.36 -855.2 -1229.16 -858.93C-1223.96 -862.66 -1217.72 -864.52 -1210.44 -864.52C-1204.11 -864.52 -1198.61 -863.35 -1193.93 -861.01L-1193.93 -864.91C-1193.93 -872.88 -1198.31 -876.87 -1207.06 -876.87C-1214.34 -876.87 -1221.36 -874.62 -1228.12 -870.11L-1232.67 -882.33C-1224.61 -887.44 -1215.64 -890 -1205.76 -890C-1188.17 -890 -1179.37 -881.68 -1179.37 -865.04L-1179.37 -822.01L-1193.93 -822.01L-1193.93 -827.21C-1198.61 -822.7 -1204.76 -820.45 -1212.39 -820.45ZM-1210.66 -833.58C-1204.42 -833.58 -1199.18 -835.79 -1194.93 -840.21L-1194.93 -848.79C-1198.92 -850.78 -1203.64 -851.78 -1209.1 -851.78C-1213.26 -851.78 -1216.7 -851 -1219.43 -849.44C-1222.17 -847.88 -1223.53 -845.58 -1223.53 -842.55C-1223.53 -839.86 -1222.4 -837.7 -1220.15 -836.05C-1217.9 -834.4 -1214.73 -833.58 -1210.66 -833.58ZM-1121.56 -890C-1114.28 -890 -1108.37 -887.81 -1103.81 -883.43C-1099.26 -879.06 -1096.99 -872.1 -1096.99 -862.57L-1096.99 -822.01L-1111.94 -822.01L-1111.94 -859.45C-1111.94 -865.17 -1113.2 -869.33 -1115.71 -871.93C-1118.22 -874.53 -1121.56 -875.83 -1125.72 -875.83C-1135.51 -875.83 -1140.41 -870.46 -1140.41 -859.71L-1140.41 -822.01L-1155.36 -822.01L-1155.36 -888.44L-1141.58 -888.44L-1141.58 -880.25C-1140.28 -882.85 -1137.75 -885.12 -1133.97 -887.08C-1130.2 -889.03 -1126.07 -890 -1121.56 -890ZM-1056.29 -820.32C-1059.15 -820.32 -1061.55 -821.29 -1063.51 -823.25C-1065.46 -825.2 -1066.43 -827.6 -1066.43 -830.46C-1066.43 -833.23 -1065.46 -835.62 -1063.51 -837.61C-1061.55 -839.6 -1059.15 -840.6 -1056.29 -840.6C-1053.43 -840.6 -1050.98 -839.6 -1048.95 -837.61C-1046.91 -835.62 -1045.89 -833.23 -1045.89 -830.46C-1045.89 -827.69 -1046.89 -825.3 -1048.88 -823.31C-1050.87 -821.32 -1053.34 -820.32 -1056.29 -820.32ZM-990.78 -820.45C-1000.14 -820.45 -1007.55 -823.53 -1013.01 -829.68C-1018.47 -835.83 -1021.2 -844.33 -1021.2 -855.16C-1021.2 -865.91 -1018.41 -874.4 -1012.81 -880.64C-1007.22 -886.88 -999.79 -890 -990.52 -890C-976.39 -890 -967.29 -883.98 -963.22 -871.93L-977.39 -867.12C-979.64 -872.93 -983.98 -875.83 -990.39 -875.83C-995.33 -875.83 -999.16 -873.97 -1001.89 -870.24C-1004.63 -866.51 -1005.99 -861.49 -1005.99 -855.16C-1005.99 -848.83 -1004.63 -843.85 -1001.89 -840.21C-999.16 -836.57 -995.42 -834.75 -990.65 -834.75C-983.72 -834.75 -979.17 -838 -977 -844.5L-962.83 -840.08C-966.82 -826.99 -976.13 -820.45 -990.78 -820.45ZM-943.3 -822.01L-943.3 -833.32L-907.81 -875.05L-940.83 -875.05L-940.83 -888.44L-888.7 -888.44L-888.7 -877.39L-924.19 -835.4L-888.83 -835.4L-888.83 -822.01L-943.3 -822.01Z" />
	</g>
	<g id="logo-1-teal" clip-path="url(#cp7)">
		<g id="logo">
			<path id="campervan copy" fill-rule="evenodd" class="shp2" d="M1238.4 -1827.39L1251.45 -1815.38C1243 -1806.39 1231 -1801.17 1217.69 -1801.17C1193.36 -1801.17 1175.79 -1819.5 1177.06 -1844.15C1178.34 -1868.79 1197.79 -1887 1222.11 -1887C1235.18 -1887 1246.54 -1882.02 1253.96 -1873.4L1239.78 -1861.26C1235.58 -1866.61 1229.1 -1870 1221.23 -1870C1206.83 -1870 1195.76 -1859.32 1194.97 -1844.15C1194.19 -1828.97 1204.17 -1818.29 1218.57 -1818.29C1226.56 -1818.29 1233.51 -1821.81 1238.4 -1827.39ZM1322.2 -1802.75L1316.89 -1817.2L1282.77 -1817.2L1275.97 -1802.75L1256.13 -1802.75L1295.85 -1885.54L1310.86 -1885.54L1342.04 -1802.75L1322.2 -1802.75ZM1302.29 -1862.6L1302.05 -1862.6C1298.41 -1853.01 1294.76 -1843.3 1290.64 -1833.83L1310.85 -1833.83C1307.59 -1843.3 1305.06 -1853.01 1302.29 -1862.6ZM1441.55 -1885.54L1442.36 -1802.75L1423.97 -1802.75C1423.88 -1819.87 1423.79 -1836.99 1424.44 -1854.22C1415.83 -1839.78 1406.17 -1826.06 1396.98 -1812.22L1395.77 -1812.22C1388.02 -1826.06 1379.77 -1839.78 1372.89 -1854.22C1371.52 -1836.99 1369.67 -1819.87 1367.82 -1802.75L1349.42 -1802.75L1358.78 -1885.54L1374.51 -1885.54L1397.89 -1843.78L1425.81 -1885.54L1441.55 -1885.54ZM1499.99 -1885.54C1516.93 -1885.54 1528.78 -1875.95 1527.87 -1858.35C1526.96 -1840.63 1514.12 -1831.04 1497.18 -1831.04L1478.91 -1831.04L1477.45 -1802.75L1459.54 -1802.75L1463.81 -1885.54L1499.99 -1885.54ZM1497.94 -1848.03C1504.59 -1848.03 1509.48 -1851.31 1509.84 -1858.35C1510.2 -1865.27 1505.65 -1868.55 1499 -1868.55L1480.84 -1868.55L1479.79 -1848.03L1497.94 -1848.03ZM1556.02 -1819.75L1596.67 -1819.75L1595.8 -1802.75L1537.23 -1802.75L1541.5 -1885.54L1598.98 -1885.54L1598.1 -1868.55L1558.53 -1868.55L1557.72 -1852.77L1593.9 -1852.77L1593.02 -1835.77L1556.84 -1835.77L1556.02 -1819.75ZM1659.57 -1802.75L1645.86 -1832.49L1630.37 -1832.49L1628.83 -1802.75L1610.92 -1802.75L1615.19 -1885.54L1652.83 -1885.54C1671.34 -1885.54 1681.81 -1874.98 1680.99 -1859.08C1680.39 -1847.55 1674.25 -1838.81 1664.01 -1834.92L1680.62 -1802.75L1659.57 -1802.75ZM1632.23 -1868.55L1631.24 -1849.49L1651.21 -1849.49C1658.47 -1849.49 1662.65 -1853.13 1662.96 -1859.08C1663.26 -1864.91 1659.45 -1868.55 1652.19 -1868.55L1632.23 -1868.55ZM1774.68 -1885.54L1734.96 -1802.75L1719.95 -1802.75L1688.77 -1885.54L1708.61 -1885.54L1719.45 -1856.29C1723.05 -1846.33 1725.65 -1835.89 1728.52 -1825.7C1732.67 -1835.89 1736.36 -1846.33 1741.11 -1856.29L1754.84 -1885.54L1774.68 -1885.54ZM1827.04 -1802.75L1821.74 -1817.2L1787.61 -1817.2L1780.82 -1802.75L1760.97 -1802.75L1800.7 -1885.54L1815.7 -1885.54L1846.89 -1802.75L1827.04 -1802.75ZM1807.14 -1862.6L1806.9 -1862.6C1803.26 -1853.01 1799.61 -1843.3 1795.49 -1833.83L1815.7 -1833.83C1812.44 -1843.3 1809.91 -1853.01 1807.14 -1862.6ZM1930.54 -1885.54L1926.27 -1802.75L1911.27 -1802.75L1875.89 -1853.49L1875.64 -1853.49C1875.43 -1847.06 1875.34 -1840.63 1875.01 -1834.19L1873.39 -1802.75L1855.48 -1802.75L1859.75 -1885.54L1874.63 -1885.54L1910.14 -1834.8L1910.38 -1834.8C1910.59 -1841.23 1910.68 -1847.67 1911.01 -1854.1L1912.63 -1885.54L1930.54 -1885.54Z" />
			<path id="cz" fill-rule="evenodd" class="shp2" d="M2029.26 -1817.56C2014.86 -1817.56 2004.33 -1828.24 2004.33 -1843.42C2004.33 -1858.59 2014.86 -1869.28 2029.26 -1869.28C2037.13 -1869.28 2043.78 -1865.88 2048.26 -1860.54L2061.81 -1872.68C2053.95 -1881.29 2042.33 -1886.27 2029.26 -1886.27C2004.94 -1886.27 1986.43 -1868.06 1986.43 -1843.42C1986.43 -1818.78 2004.94 -1800.45 2029.26 -1800.45C2042.57 -1800.45 2054.31 -1805.67 2062.3 -1814.65L2048.62 -1826.67C2044.03 -1821.08 2037.25 -1817.56 2029.26 -1817.56ZM2095.82 -1819.26L2134.42 -1869.88L2134.42 -1884.81L2073.19 -1884.81L2073.19 -1867.82L2109.85 -1867.82L2109.85 -1867.58L2071.25 -1816.95L2071.25 -1802.02L2136.23 -1802.02L2136.23 -1819.02L2095.82 -1819.02L2095.82 -1819.26Z" />
			<path id="Oval 10" class="shp2" d="M1960.53 -1832.37C1965.54 -1832.37 1969.61 -1836.45 1969.61 -1841.48C1969.61 -1846.51 1965.54 -1850.58 1960.53 -1850.58C1955.52 -1850.58 1951.45 -1846.51 1951.45 -1841.48C1951.45 -1836.45 1955.52 -1832.37 1960.53 -1832.37Z" />
		</g>
	</g>
	<g id="logo-1-black" clip-path="url(#cp8)">
		<g id="logo">
			<path id="campervan copy" fill-rule="evenodd" class="shp2" d="M-261.6 -1827.39L-248.55 -1815.38C-257 -1806.39 -269 -1801.17 -282.31 -1801.17C-306.64 -1801.17 -324.21 -1819.5 -322.94 -1844.15C-321.66 -1868.79 -302.21 -1887 -277.89 -1887C-264.82 -1887 -253.46 -1882.02 -246.04 -1873.4L-260.22 -1861.26C-264.42 -1866.61 -270.9 -1870 -278.77 -1870C-293.17 -1870 -304.24 -1859.32 -305.03 -1844.15C-305.81 -1828.97 -295.83 -1818.29 -281.43 -1818.29C-273.44 -1818.29 -266.49 -1821.81 -261.6 -1827.39ZM-177.8 -1802.75L-183.11 -1817.2L-217.23 -1817.2L-224.03 -1802.75L-243.87 -1802.75L-204.15 -1885.54L-189.14 -1885.54L-157.96 -1802.75L-177.8 -1802.75ZM-197.71 -1862.6L-197.95 -1862.6C-201.59 -1853.01 -205.24 -1843.3 -209.36 -1833.83L-189.15 -1833.83C-192.41 -1843.3 -194.94 -1853.01 -197.71 -1862.6ZM-58.45 -1885.54L-57.64 -1802.75L-76.03 -1802.75C-76.12 -1819.87 -76.21 -1836.99 -75.56 -1854.22C-84.17 -1839.78 -93.83 -1826.06 -103.02 -1812.22L-104.23 -1812.22C-111.98 -1826.06 -120.23 -1839.78 -127.11 -1854.22C-128.48 -1836.99 -130.33 -1819.87 -132.18 -1802.75L-150.58 -1802.75L-141.22 -1885.54L-125.49 -1885.54L-102.11 -1843.78L-74.19 -1885.54L-58.45 -1885.54ZM-0.01 -1885.54C16.93 -1885.54 28.78 -1875.95 27.87 -1858.35C26.96 -1840.63 14.12 -1831.04 -2.82 -1831.04L-21.09 -1831.04L-22.55 -1802.75L-40.46 -1802.75L-36.19 -1885.54L-0.01 -1885.54ZM-2.06 -1848.03C4.59 -1848.03 9.48 -1851.31 9.84 -1858.35C10.2 -1865.27 5.65 -1868.55 -1 -1868.55L-19.16 -1868.55L-20.21 -1848.03L-2.06 -1848.03ZM56.02 -1819.75L96.67 -1819.75L95.8 -1802.75L37.23 -1802.75L41.5 -1885.54L98.98 -1885.54L98.1 -1868.55L58.53 -1868.55L57.72 -1852.77L93.9 -1852.77L93.02 -1835.77L56.84 -1835.77L56.02 -1819.75ZM159.57 -1802.75L145.86 -1832.49L130.37 -1832.49L128.83 -1802.75L110.92 -1802.75L115.19 -1885.54L152.83 -1885.54C171.34 -1885.54 181.81 -1874.98 180.99 -1859.08C180.39 -1847.55 174.25 -1838.81 164.01 -1834.92L180.62 -1802.75L159.57 -1802.75ZM132.23 -1868.55L131.24 -1849.49L151.21 -1849.49C158.47 -1849.49 162.65 -1853.13 162.96 -1859.08C163.26 -1864.91 159.45 -1868.55 152.19 -1868.55L132.23 -1868.55ZM274.68 -1885.54L234.96 -1802.75L219.95 -1802.75L188.77 -1885.54L208.61 -1885.54L219.45 -1856.29C223.05 -1846.33 225.65 -1835.89 228.52 -1825.7C232.67 -1835.89 236.36 -1846.33 241.11 -1856.29L254.84 -1885.54L274.68 -1885.54ZM327.04 -1802.75L321.74 -1817.2L287.61 -1817.2L280.82 -1802.75L260.97 -1802.75L300.7 -1885.54L315.7 -1885.54L346.89 -1802.75L327.04 -1802.75ZM307.14 -1862.6L306.9 -1862.6C303.26 -1853.01 299.61 -1843.3 295.49 -1833.83L315.7 -1833.83C312.44 -1843.3 309.91 -1853.01 307.14 -1862.6ZM430.54 -1885.54L426.27 -1802.75L411.27 -1802.75L375.89 -1853.49L375.64 -1853.49C375.43 -1847.06 375.34 -1840.63 375.01 -1834.19L373.39 -1802.75L355.48 -1802.75L359.75 -1885.54L374.63 -1885.54L410.14 -1834.8L410.38 -1834.8C410.59 -1841.23 410.68 -1847.67 411.01 -1854.1L412.63 -1885.54L430.54 -1885.54Z" />
			<path id="cz" fill-rule="evenodd" class="shp2" d="M529.26 -1817.56C514.86 -1817.56 504.33 -1828.24 504.33 -1843.42C504.33 -1858.59 514.86 -1869.28 529.26 -1869.28C537.13 -1869.28 543.78 -1865.88 548.26 -1860.54L561.81 -1872.68C553.95 -1881.29 542.33 -1886.27 529.26 -1886.27C504.94 -1886.27 486.43 -1868.06 486.43 -1843.42C486.43 -1818.78 504.94 -1800.45 529.26 -1800.45C542.57 -1800.45 554.31 -1805.67 562.3 -1814.65L548.62 -1826.67C544.03 -1821.08 537.25 -1817.56 529.26 -1817.56ZM595.82 -1819.26L634.42 -1869.88L634.42 -1884.81L573.19 -1884.81L573.19 -1867.82L609.85 -1867.82L609.85 -1867.58L571.25 -1816.95L571.25 -1802.02L636.23 -1802.02L636.23 -1819.02L595.82 -1819.02L595.82 -1819.26Z" />
			<path id="Oval 10" class="shp2" d="M460.53 -1832.37C465.54 -1832.37 469.61 -1836.45 469.61 -1841.48C469.61 -1846.51 465.54 -1850.58 460.53 -1850.58C455.52 -1850.58 451.45 -1846.51 451.45 -1841.48C451.45 -1836.45 455.52 -1832.37 460.53 -1832.37Z" />
		</g>
	</g>
	<g id="logo-1-green" clip-path="url(#cp9)">
		<g id="logo">
			<path id="campervan copy" fill-rule="evenodd" class="shp0" d="M-1761.6 -1827.39L-1748.55 -1815.38C-1757 -1806.39 -1769 -1801.17 -1782.31 -1801.17C-1806.64 -1801.17 -1824.21 -1819.5 -1822.94 -1844.15C-1821.66 -1868.79 -1802.21 -1887 -1777.89 -1887C-1764.82 -1887 -1753.46 -1882.02 -1746.04 -1873.4L-1760.22 -1861.26C-1764.42 -1866.61 -1770.9 -1870 -1778.77 -1870C-1793.17 -1870 -1804.24 -1859.32 -1805.03 -1844.15C-1805.81 -1828.97 -1795.83 -1818.29 -1781.43 -1818.29C-1773.44 -1818.29 -1766.49 -1821.81 -1761.6 -1827.39ZM-1677.8 -1802.75L-1683.11 -1817.2L-1717.23 -1817.2L-1724.03 -1802.75L-1743.87 -1802.75L-1704.15 -1885.54L-1689.14 -1885.54L-1657.96 -1802.75L-1677.8 -1802.75ZM-1697.71 -1862.6L-1697.95 -1862.6C-1701.59 -1853.01 -1705.24 -1843.3 -1709.36 -1833.83L-1689.15 -1833.83C-1692.41 -1843.3 -1694.94 -1853.01 -1697.71 -1862.6ZM-1558.45 -1885.54L-1557.64 -1802.75L-1576.03 -1802.75C-1576.12 -1819.87 -1576.21 -1836.99 -1575.56 -1854.22C-1584.17 -1839.78 -1593.83 -1826.06 -1603.02 -1812.22L-1604.23 -1812.22C-1611.98 -1826.06 -1620.23 -1839.78 -1627.11 -1854.22C-1628.48 -1836.99 -1630.33 -1819.87 -1632.18 -1802.75L-1650.58 -1802.75L-1641.22 -1885.54L-1625.49 -1885.54L-1602.11 -1843.78L-1574.19 -1885.54L-1558.45 -1885.54ZM-1500.01 -1885.54C-1483.07 -1885.54 -1471.22 -1875.95 -1472.13 -1858.35C-1473.04 -1840.63 -1485.88 -1831.04 -1502.82 -1831.04L-1521.09 -1831.04L-1522.55 -1802.75L-1540.46 -1802.75L-1536.19 -1885.54L-1500.01 -1885.54ZM-1502.06 -1848.03C-1495.41 -1848.03 -1490.52 -1851.31 -1490.16 -1858.35C-1489.8 -1865.27 -1494.35 -1868.55 -1501 -1868.55L-1519.16 -1868.55L-1520.21 -1848.03L-1502.06 -1848.03ZM-1443.98 -1819.75L-1403.33 -1819.75L-1404.2 -1802.75L-1462.77 -1802.75L-1458.5 -1885.54L-1401.02 -1885.54L-1401.9 -1868.55L-1441.47 -1868.55L-1442.28 -1852.77L-1406.1 -1852.77L-1406.98 -1835.77L-1443.16 -1835.77L-1443.98 -1819.75ZM-1340.43 -1802.75L-1354.14 -1832.49L-1369.63 -1832.49L-1371.17 -1802.75L-1389.08 -1802.75L-1384.81 -1885.54L-1347.17 -1885.54C-1328.66 -1885.54 -1318.19 -1874.98 -1319.01 -1859.08C-1319.61 -1847.55 -1325.75 -1838.81 -1335.99 -1834.92L-1319.38 -1802.75L-1340.43 -1802.75ZM-1367.77 -1868.55L-1368.76 -1849.49L-1348.79 -1849.49C-1341.53 -1849.49 -1337.35 -1853.13 -1337.04 -1859.08C-1336.74 -1864.91 -1340.55 -1868.55 -1347.81 -1868.55L-1367.77 -1868.55ZM-1225.32 -1885.54L-1265.04 -1802.75L-1280.05 -1802.75L-1311.23 -1885.54L-1291.39 -1885.54L-1280.55 -1856.29C-1276.95 -1846.33 -1274.35 -1835.89 -1271.48 -1825.7C-1267.33 -1835.89 -1263.64 -1846.33 -1258.89 -1856.29L-1245.16 -1885.54L-1225.32 -1885.54ZM-1172.96 -1802.75L-1178.26 -1817.2L-1212.39 -1817.2L-1219.18 -1802.75L-1239.03 -1802.75L-1199.3 -1885.54L-1184.3 -1885.54L-1153.11 -1802.75L-1172.96 -1802.75ZM-1192.86 -1862.6L-1193.1 -1862.6C-1196.74 -1853.01 -1200.39 -1843.3 -1204.51 -1833.83L-1184.3 -1833.83C-1187.56 -1843.3 -1190.09 -1853.01 -1192.86 -1862.6ZM-1069.46 -1885.54L-1073.73 -1802.75L-1088.73 -1802.75L-1124.11 -1853.49L-1124.36 -1853.49C-1124.57 -1847.06 -1124.66 -1840.63 -1124.99 -1834.19L-1126.61 -1802.75L-1144.52 -1802.75L-1140.25 -1885.54L-1125.37 -1885.54L-1089.86 -1834.8L-1089.62 -1834.8C-1089.41 -1841.23 -1089.32 -1847.67 -1088.99 -1854.1L-1087.37 -1885.54L-1069.46 -1885.54Z" />
			<path id="cz" fill-rule="evenodd" class="shp0" d="M-970.74 -1817.56C-985.14 -1817.56 -995.67 -1828.24 -995.67 -1843.42C-995.67 -1858.59 -985.14 -1869.28 -970.74 -1869.28C-962.87 -1869.28 -956.22 -1865.88 -951.74 -1860.54L-938.19 -1872.68C-946.05 -1881.29 -957.67 -1886.27 -970.74 -1886.27C-995.06 -1886.27 -1013.57 -1868.06 -1013.57 -1843.42C-1013.57 -1818.78 -995.06 -1800.45 -970.74 -1800.45C-957.43 -1800.45 -945.69 -1805.67 -937.7 -1814.65L-951.38 -1826.67C-955.97 -1821.08 -962.75 -1817.56 -970.74 -1817.56ZM-904.18 -1819.26L-865.58 -1869.88L-865.58 -1884.81L-926.81 -1884.81L-926.81 -1867.82L-890.15 -1867.82L-890.15 -1867.58L-928.75 -1816.95L-928.75 -1802.02L-863.77 -1802.02L-863.77 -1819.02L-904.18 -1819.02L-904.18 -1819.26Z" />
			<path id="Oval 10" class="shp0" d="M-1039.47 -1832.37C-1034.46 -1832.37 -1030.39 -1836.45 -1030.39 -1841.48C-1030.39 -1846.51 -1034.46 -1850.58 -1039.47 -1850.58C-1044.48 -1850.58 -1048.55 -1846.51 -1048.55 -1841.48C-1048.55 -1836.45 -1044.48 -1832.37 -1039.47 -1832.37Z" />
		</g>
	</g>
</svg>
