
<svg xmlns="http://www.w3.org/2000/svg" width="90.8" height="91" viewBox="0 0 90.8 91"><defs><style>.a{fill:#09b0b7;}.b{fill:#05585c;}</style></defs><g transform="translate(-1007.769 -546.716)"><path class="a" d="M1053.569,546.716l-7.9,8,2.2,2.2,4.2-4.1v9.1h3.1v-9.1l4.2,4.1,2.2-2.2Z"/><path class="a" d="M1032.469,559.516l-11.2.1v11.2h3.1v-5.8l6.5,6.4,2.2-2.2-6.4-6.5h5.8Z"/><path class="a" d="M1022.969,593.216v-3.2h-9.1l4.1-4.1-2.3-2.3-7.9,8,7.9,8,2.3-2.3-4.1-4.1Z"/><path class="a" d="M1030.069,612.116l-6.4,6.5v-5.9h-3.2v11.3h11.3v-3.2h-5.9l6.4-6.4Z"/><path class="a" d="M1073.669,624.816h11.2v-11.3h-3.1v5.8l-6.5-6.4-2.2,2.3,6.4,6.4h-5.8Z"/><path class="a" d="M1088.369,587.016l4.1,4.1h-9.1v3.2h9.1l-4.1,4.1,2.2,2.3,8-8-8-8Z"/><path class="a" d="M1052.569,637.716l7.9-7.9-2.2-2.3-4.2,4.1v-9.1h-3.1v9.1l-4.2-4.1-2.2,2.3Z"/><path class="a" d="M1085.669,571.616v-11.3h-11.3v3.2h5.9l-6.4,6.4,2.2,2.3,6.4-6.5v5.9Z"/><path class="b" d="M1073.569,592.216a20.5,20.5,0,1,0-20.5,20.5A20.5,20.5,0,0,0,1073.569,592.216Zm-20.5,17.2a17.25,17.25,0,1,1,17.3-17.2A17.249,17.249,0,0,1,1053.069,609.416Z"/><path class="a" d="M1053.469,567.816a21.842,21.842,0,0,1,6.3.9l.9-3.1a28.443,28.443,0,0,0-7.1-1.1Z"/><path class="a" d="M1044.069,569.516a26.951,26.951,0,0,1,6.2-1.6l-.4-3.2a27.731,27.731,0,0,0-7,1.8Z"/><path class="a" d="M1052.969,616.516a22.285,22.285,0,0,1-6.3-.9l-.9,3.1a28.445,28.445,0,0,0,7.2,1Z"/><path class="a" d="M1072.469,611.716l-2.2-2.3a24.581,24.581,0,0,1-5.1,3.9l1.6,2.8A27.03,27.03,0,0,0,1072.469,611.716Z"/><path class="a" d="M1026.469,584.716a28.31,28.31,0,0,0-1,7.1h3.2a22.357,22.357,0,0,1,.9-6.3Z"/><path class="a" d="M1062.269,614.716a22.654,22.654,0,0,1-6.2,1.6l.4,3.2a27.71,27.71,0,0,0,7-1.8Z"/><path class="a" d="M1078.569,602.716l-3-1.2a23.206,23.206,0,0,1-3.2,5.5l2.5,1.9A25.423,25.423,0,0,0,1078.569,602.716Z"/><path class="a" d="M1070.269,570.616a26.092,26.092,0,0,0-6.2-3.7l-1.3,2.9a27.66,27.66,0,0,1,5.5,3.3Z"/><path class="a" d="M1030.469,601.316a26.981,26.981,0,0,1-1.6-6.2l-3.2.4a27.758,27.758,0,0,0,1.8,7Z"/><path class="a" d="M1070.669,575.216a23.338,23.338,0,0,1,3.8,5.1l2.8-1.5a27.307,27.307,0,0,0-4.3-5.8Z"/><path class="a" d="M1075.769,583.316a22.431,22.431,0,0,1,1.5,6.2l3.2-.3a27.545,27.545,0,0,0-1.7-7Z"/><path class="a" d="M1079.669,599.316a28.377,28.377,0,0,0,.9-7.2h-3.2a26.5,26.5,0,0,1-.8,6.3Z"/><path class="a" d="M1035.669,609.316a21.178,21.178,0,0,1-3.8-5.1l-2.8,1.5a30.6,30.6,0,0,0,4.4,5.8Z"/><path class="a" d="M1041.169,570.916l-1.6-2.8a27.3,27.3,0,0,0-5.8,4.3l2.2,2.3A23.987,23.987,0,0,1,1041.169,570.916Z"/><path class="a" d="M1027.769,581.316l2.9,1.3a20.643,20.643,0,0,1,3.3-5.5l-2.5-2A23.205,23.205,0,0,0,1027.769,581.316Z"/><path class="a" d="M1036.169,613.916a29.921,29.921,0,0,0,6.2,3.7l1.2-2.9a23.249,23.249,0,0,1-5.5-3.2Z"/><path class="b" d="M1053.283,586a14.68,14.68,0,0,0-12.032,5.892.788.788,0,0,0,0,.919,15.22,15.22,0,0,0,24.065,0,.779.779,0,0,0,0-.919A14.686,14.686,0,0,0,1053.283,586Zm0,1.854a4.49,4.49,0,1,1-.024,0Zm-4.568.48a6.073,6.073,0,0,0,0,8.043,12.616,12.616,0,0,1-5.8-4.021,12.6,12.6,0,0,1,5.8-4.022Zm9.136,0a12.6,12.6,0,0,1,5.8,4.022,12.624,12.624,0,0,1-5.8,4.022,6.074,6.074,0,0,0,0-8.044Zm-4.568,1.109a2.913,2.913,0,1,0,2.913,2.913A2.913,2.913,0,0,0,1053.283,589.443Zm0,1.588a1.312,1.312,0,1,1-.024,0Z"/></g></svg>
