<svg xmlns="http://www.w3.org/2000/svg" width="276" height="89.694" viewBox="0 0 276 89.694"><defs><style>.a{fill:#05585c;}.b{fill:#09b0b7;}.c{fill:none;stroke:#09b0b7;stroke-width:4px;stroke-dasharray:4;}</style></defs><g transform="translate(-140 -1634.303)"><g transform="translate(316 1623.326)"><path class="a" d="M51.546,17.674H0V82.325H100V17.674ZM3,79.326V20.674H48.454V79.325H3Zm94,0H51.546V20.674H97Z"/><rect class="b" width="2" height="2" transform="translate(10.4 53)"/><rect class="b" width="27" height="2" transform="translate(14.4 53)"/><rect class="b" width="2" height="2" transform="translate(10.4 59)"/><rect class="b" width="27" height="2" transform="translate(14.4 59)"/><rect class="b" width="2" height="2" transform="translate(10.4 65)"/><rect class="b" width="27" height="2" transform="translate(14.4 65)"/><rect class="b" width="2" height="2" transform="translate(10.4 71)"/><rect class="b" width="27" height="2" transform="translate(14.4 71)"/><rect class="b" width="2" height="2" transform="translate(58 53)"/><rect class="b" width="27" height="2" transform="translate(62 53)"/><rect class="b" width="2" height="2" transform="translate(58 59)"/><rect class="b" width="27" height="2" transform="translate(62 59)"/><rect class="b" width="2" height="2" transform="translate(58 65)"/><rect class="b" width="27" height="2" transform="translate(62 65)"/><rect class="b" width="2" height="2" transform="translate(58 71)"/><rect class="b" width="27" height="2" transform="translate(62 71)"/><path class="b" d="M24.4,46.231,18.339,40.17l2.121-2.121,3.94,3.94,10.939-10.94L37.46,33.17Z"/><path class="b" d="M82.561,32.951,80.439,30.83,74.75,36.519,69.061,30.83l-2.122,2.121,5.69,5.689-5.69,5.69,2.122,2.121,5.689-5.69,5.689,5.69,2.122-2.121-5.69-5.69Z"/></g><g transform="translate(138 1625.303)"><g transform="translate(2 9)"><path class="a" d="M117.05,71.4H115.1V57.75a1.95,1.95,0,0,0-1.078-1.755l-7.215-3.608L97.349,33.472A1.95,1.95,0,0,0,95.6,32.4H74.15V24.3l10.072-1.679A1.95,1.95,0,0,0,85.85,20.7V10.95a1.95,1.95,0,0,0-2.272-1.923l-58.5,9.75A1.95,1.95,0,0,0,23.45,20.7V32.4H17.6a1.95,1.95,0,0,0-1.378.571l-5.85,5.85A1.95,1.95,0,0,0,9.8,40.2V71.4H3.95A1.95,1.95,0,0,0,2,73.35v7.8A1.95,1.95,0,0,0,3.95,83.1H9.8v1.95A1.95,1.95,0,0,0,11.75,87h6.006a13.632,13.632,0,0,0,26.988,0H84.056a13.632,13.632,0,0,0,26.988,0h6.006A1.95,1.95,0,0,0,119,85.05V73.35A1.95,1.95,0,0,0,117.05,71.4ZM9.8,79.2H5.9V75.3H9.8ZM27.35,22.351l54.6-9.1v5.8l-54.6,9.1Zm0,9.75,42.9-7.149V32.4H27.35ZM13.7,41.007,18.407,36.3H94.395l9.21,18.422a1.95,1.95,0,0,0,.874.874l6.722,3.36V63.6h-9.75a1.95,1.95,0,0,0-1.95,1.95V71.4H13.7ZM111.2,67.5v3.9h-7.8V67.5ZM17.756,83.1H13.7V75.3h8.015A13.611,13.611,0,0,0,17.756,83.1ZM31.25,94.8A9.75,9.75,0,1,1,41,85.05a9.75,9.75,0,0,1-9.75,9.75ZM84.056,83.1H44.744a13.611,13.611,0,0,0-3.959-7.8H88.015A13.611,13.611,0,0,0,84.056,83.1ZM97.55,94.8a9.75,9.75,0,1,1,9.75-9.75,9.75,9.75,0,0,1-9.75,9.75ZM115.1,83.1h-4.056a13.611,13.611,0,0,0-3.958-7.8H115.1Z" transform="translate(-2 -9)"/><path class="b" d="M78.205,26.078A1.95,1.95,0,0,0,76.45,25H17.95A1.95,1.95,0,0,0,16,26.95v11.7a1.95,1.95,0,0,0,1.95,1.95H82.3a1.95,1.95,0,0,0,1.755-2.822ZM39.4,36.7H19.9V28.9H39.4Zm15.6,0H43.3V28.9H55Zm3.9,0V28.9H75.245l3.9,7.8Z" transform="translate(11.3 6.199)"/><rect class="a" width="7" height="3" transform="translate(16 31.697)"/><rect class="a" width="7" height="4" transform="translate(16 38.697)"/><rect class="a" width="7" height="4" transform="translate(16 46.697)"/><rect class="b" width="8" height="4" transform="translate(74 50.697)"/><rect class="b" width="8" height="4" transform="translate(62 50.697)"/><rect class="b" width="4" height="4" transform="translate(55 50.697)"/><path class="b" d="M19.85,45a5.85,5.85,0,1,0,5.85,5.85A5.85,5.85,0,0,0,19.85,45Zm0,7.8a1.95,1.95,0,1,1,1.95-1.95A1.95,1.95,0,0,1,19.85,52.8Z" transform="translate(9.4 25.199)"/><path class="b" d="M53.85,45a5.85,5.85,0,1,0,5.85,5.85A5.85,5.85,0,0,0,53.85,45Zm0,7.8a1.95,1.95,0,1,1,1.95-1.95A1.95,1.95,0,0,1,53.85,52.8Z" transform="translate(41.7 25.199)"/><path class="a" d="M21.7,36.95V38.9H10v3.9H23.65a1.95,1.95,0,0,0,1.95-1.95V38.9H45.1V35H23.65A1.95,1.95,0,0,0,21.7,36.95Z" transform="translate(5.6 15.699)"/></g></g><line class="c" x2="31" transform="translate(271.5 1673.5)"/></g></svg>