
<svg xmlns="http://www.w3.org/2000/svg" width="64.626" height="75.106" viewBox="0 0 64.626 75.106"><defs><style>.a{fill:#05585c;}.b{fill:#09b0b7;}</style></defs><g transform="translate(-754.374 -481)"><path class="a" d="M815.571,532.659a5.445,5.445,0,0,0-4.291.051l-.613.255a5.611,5.611,0,0,0-7.049-2.3l-5.926,2.5a1.542,1.542,0,0,0-.817,1.992,1.57,1.57,0,0,0,1.43.919,2.567,2.567,0,0,0,.613-.1l5.926-2.5a2.584,2.584,0,0,1,2.962.715l-12,5.108a5.554,5.554,0,0,0-3.32-5.516L779.2,527.857a16.854,16.854,0,0,0-17.061,1.992l-1.993,1.533-.153.153-.511.511a1.471,1.471,0,0,0-.46,1.072v16.347h-3.116a1.533,1.533,0,0,0,0,3.065h4.6A1.505,1.505,0,0,0,762.036,551V533.731l1.941-1.481a13.832,13.832,0,0,1,14-1.635l13.179,5.926a2.309,2.309,0,0,1,1.329,1.43,2.811,2.811,0,0,1-.052,1.941,2.514,2.514,0,0,1-1.379,1.329,2.556,2.556,0,0,1-1.941-.052l-10.216-4.546a1.543,1.543,0,1,0-1.277,2.81L787.833,544a5.448,5.448,0,0,0,4.291.1,1.892,1.892,0,0,0,.562-.255c.1,0,.153-.051.2-.051l19.514-8.276a2.558,2.558,0,0,1,1.941,0,2.6,2.6,0,0,1,1.379,1.38,2.549,2.549,0,0,1,0,1.941,2.6,2.6,0,0,1-1.379,1.379l-28.811,12.158a8.654,8.654,0,0,1-7.2-.205l-12.158-5.925a1.531,1.531,0,1,0-1.328,2.758L777,554.931a11.388,11.388,0,0,0,5.159,1.175,12.1,12.1,0,0,0,4.6-.92l28.811-12.158a5.542,5.542,0,0,0,3.014-3.065,5.443,5.443,0,0,0-.051-4.29A5.217,5.217,0,0,0,815.571,532.659Z"/><path class="b" d="M809.559,483.643h-.846v-1.322a1.322,1.322,0,0,0-2.643,0v1.322h-5.285v-1.322a1.321,1.321,0,0,0-2.643,0v1.322h-5.285v-1.322a1.322,1.322,0,0,0-2.643,0v1.322h-5.286v-1.322a1.321,1.321,0,1,0-2.642,0v1.322h-.846a4.228,4.228,0,0,0-4.44,3.964V499.5a1.322,1.322,0,1,0,2.643,0v-7.928h31.713v22.463c0,.714-.819,1.322-1.8,1.322H781.44c-.978,0-1.8-.608-1.8-1.322v-2.642a1.322,1.322,0,1,0-2.643,0v2.642A4.229,4.229,0,0,0,781.44,518h28.119a4.229,4.229,0,0,0,4.44-3.965V487.607A4.228,4.228,0,0,0,809.559,483.643Zm-29.916,5.285v-1.321c0-.714.819-1.321,1.8-1.321h28.119c.978,0,1.8.607,1.8,1.321v1.321ZM777,507.428a1.322,1.322,0,1,1,1.321,1.321A1.322,1.322,0,0,1,777,507.428Zm0-3.965a1.322,1.322,0,1,1,1.321,1.322A1.322,1.322,0,0,1,777,503.463Zm25.106-1.321h5.286a1.322,1.322,0,0,0,1.321-1.321v-5.286a1.321,1.321,0,0,0-1.321-1.321h-5.286a1.32,1.32,0,0,0-1.321,1.321v5.286A1.321,1.321,0,0,0,802.106,502.142Zm1.322-5.285h2.642V499.5h-2.642Zm-2.643,14.535a1.321,1.321,0,0,0,1.321,1.321h5.286a1.322,1.322,0,0,0,1.321-1.321v-5.286a1.321,1.321,0,0,0-1.321-1.321h-5.286a1.32,1.32,0,0,0-1.321,1.321Zm2.643-3.964h2.642v2.642h-2.642Zm-11.893,3.964a1.322,1.322,0,0,0,1.322,1.321h5.285a1.321,1.321,0,0,0,1.321-1.321v-5.286a1.32,1.32,0,0,0-1.321-1.321h-5.285a1.321,1.321,0,0,0-1.322,1.321Zm2.643-3.964h2.643v2.642h-2.643Zm-11.892,3.964a1.321,1.321,0,0,0,1.321,1.321h5.285a1.322,1.322,0,0,0,1.322-1.321v-5.286a1.321,1.321,0,0,0-1.322-1.321h-5.285a1.32,1.32,0,0,0-1.321,1.321Zm2.642-3.964h2.643v2.642h-2.643Zm-2.246-7a1.321,1.321,0,1,1,1.734-1.994,1.288,1.288,0,0,1,.142.144l.37.37,3.026-3.026a1.327,1.327,0,0,1,1.877,1.877l-3.965,3.964a1.322,1.322,0,0,1-.938.383h0a1.319,1.319,0,0,1-.938-.4Zm9.25,0a1.321,1.321,0,1,1,1.733-1.994,1.3,1.3,0,0,1,.143.144l.37.37,3.026-3.026a1.327,1.327,0,1,1,1.876,1.877l-3.964,3.964a1.322,1.322,0,0,1-.938.383h0a1.319,1.319,0,0,1-.938-.4Z"/></g></svg>
