<svg xmlns="http://www.w3.org/2000/svg" width="191.916" height="105.914" viewBox="0 0 191.916 105.914"><defs><style>.a{fill:#05585c;}.b{fill:#09b0b7;}</style></defs><g transform="translate(-284.007 -307)"><circle class="a" cx="1.765" cy="1.765" r="1.765" transform="translate(403.397 314.061)"/><circle class="a" cx="1.765" cy="1.765" r="1.765" transform="translate(396.336 314.061)"/><path class="a" d="M369.858,402.322a1.766,1.766,0,0,0,0,3.531H387.51a1.766,1.766,0,1,0,0-3.531Z"/><path class="a" d="M382.255,334.891l2.874,2.8-.674,3.943a1.765,1.765,0,0,0,2.561,1.861l3.541-1.863,3.543,1.863a1.765,1.765,0,0,0,2.561-1.861l-.678-3.945,2.848-2.8a1.766,1.766,0,0,0-.98-3l-3.959-.575-1.766-3.59a1.765,1.765,0,0,0-3.165,0l-1.765,3.59-3.961.575a1.764,1.764,0,0,0-.98,3.007Zm5.028-.029,1.339-.194a1.766,1.766,0,0,0,1.33-.965l.6-1.215.6,1.215a1.766,1.766,0,0,0,1.328.965l1.338.194-.969.945a1.765,1.765,0,0,0-.507,1.562l.229,1.335-1.2-.629a1.752,1.752,0,0,0-1.644,0l-1.2.629.227-1.335a1.764,1.764,0,0,0-.506-1.562Z"/><path class="a" d="M398.831,354.308a1.766,1.766,0,0,0-.98-3l-3.959-.575-1.766-3.591a1.765,1.765,0,0,0-3.165,0l-1.765,3.591-3.961.575a1.766,1.766,0,0,0-.98,3l2.874,2.8-.674,3.944a1.765,1.765,0,0,0,2.561,1.86l3.541-1.862,3.543,1.862a1.764,1.764,0,0,0,2.561-1.86l-.678-3.946,2.86-2.8Zm-5.015-.032-.969.945a1.765,1.765,0,0,0-.507,1.562l.229,1.335-1.2-.629a1.752,1.752,0,0,0-1.644,0l-1.2.629.227-1.335a1.764,1.764,0,0,0-.506-1.562l-.969-.945,1.339-.194a1.766,1.766,0,0,0,1.33-.965l.6-1.215.6,1.215a1.766,1.766,0,0,0,1.328.965Z"/><path class="a" d="M398.831,375.491a1.766,1.766,0,0,0-.98-3l-3.959-.575-1.766-3.591a1.765,1.765,0,0,0-3.165,0l-1.765,3.591-3.961.575a1.766,1.766,0,0,0-.98,3l2.874,2.8-.674,3.943a1.765,1.765,0,0,0,2.561,1.861l3.541-1.862,3.543,1.862a1.765,1.765,0,0,0,2.561-1.861l-.678-3.945,2.86-2.8Zm-5.015-.032-.969.945a1.764,1.764,0,0,0-.507,1.562l.229,1.334-1.2-.628a1.752,1.752,0,0,0-1.644,0l-1.2.628.227-1.334a1.763,1.763,0,0,0-.506-1.562l-.969-.945,1.339-.194a1.77,1.77,0,0,0,1.33-.966l.6-1.214.6,1.214a1.765,1.765,0,0,0,1.328.966Z"/><circle class="a" cx="1.765" cy="1.765" r="1.765" transform="translate(343.38 347.6)"/><circle class="a" cx="1.765" cy="1.765" r="1.765" transform="translate(353.971 347.6)"/><path class="a" d="M355.219,357.674a1.765,1.765,0,0,0-2.5-2.5,3.231,3.231,0,0,1-4.565,0,1.765,1.765,0,0,0-2.5,2.5,6.766,6.766,0,0,0,9.557,0Z"/><path class="a" d="M378.536,363.339a8.843,8.843,0,0,1-8.678,7.209h-.145a14.139,14.139,0,0,0-10.148-6.884,14.085,14.085,0,0,0,5-10.768V342.3a1.766,1.766,0,0,0-1.765-1.766h-4.351l-3.012-4.51a1.834,1.834,0,0,0-2.937,0l-3,4.51H338.084a1.766,1.766,0,0,0-1.765,1.766v3.53a1.765,1.765,0,1,0,3.53,0V344.07H350.44a1.764,1.764,0,0,0,1.469-.791l2.062-3.093,2.062,3.1a1.764,1.764,0,0,0,1.468.786h3.531V352.9a10.592,10.592,0,0,1-21.183,0,1.765,1.765,0,0,0-3.53,0,14.121,14.121,0,0,0,7.061,12.212v3.675a7.061,7.061,0,1,0,14.121,0v-1.765a10.6,10.6,0,0,1,10.592,10.591v7.061H352.206a1.765,1.765,0,1,0,0,3.531h17.652a1.766,1.766,0,0,0,1.765-1.766v-8.826a14,14,0,0,0-.482-3.6,12.376,12.376,0,0,0,11.074-12.29,1.766,1.766,0,0,0-1.766-1.765,8.837,8.837,0,0,1-8.826-8.826,1.765,1.765,0,1,0-3.53,0A12.376,12.376,0,0,0,378.536,363.339Zm-24.565,3.215v2.229a3.531,3.531,0,1,1-7.061,0v-2.229A13.656,13.656,0,0,0,353.971,366.554Z"/><path class="a" d="M403.4,359.957V393.5a1.766,1.766,0,0,1-1.765,1.766h-45.9a1.766,1.766,0,0,1-1.765-1.766,1.766,1.766,0,0,0-3.531,0,5.3,5.3,0,0,0,5.3,5.3h45.9a5.3,5.3,0,0,0,5.3-5.3V359.957a1.766,1.766,0,0,0-3.531,0Z"/><path class="a" d="M329.258,352.9a20.93,20.93,0,0,0,5.152,13.825,14.183,14.183,0,0,0-5.152,10.888v8.826a1.766,1.766,0,0,0,1.765,1.766H343.38v15.887a8.836,8.836,0,0,0,8.826,8.826h52.957a8.837,8.837,0,0,0,8.826-8.826V315.826A8.837,8.837,0,0,0,405.163,307H352.206a8.836,8.836,0,0,0-8.826,8.826v3.531a1.765,1.765,0,1,0,3.53,0v-3.531a5.3,5.3,0,0,1,5.3-5.3h52.957a5.3,5.3,0,0,1,5.3,5.3v88.262a5.3,5.3,0,0,1-5.3,5.295H352.206a5.3,5.3,0,0,1-5.3-5.295V386.435a1.765,1.765,0,0,0-1.765-1.765H332.788v-7.061A10.51,10.51,0,0,1,338,368.5a1.765,1.765,0,0,0,.314-2.8,17.479,17.479,0,0,1-5.525-12.8v-7.061c0-.109,0-.219,0-.328a17.653,17.653,0,0,1,17.978-17.321c.471.009.937.046,1.4.094h.048A18.005,18.005,0,0,1,368,344.661a1.787,1.787,0,0,0,1.928,1.589h0a1.766,1.766,0,0,0,1.588-1.926,21.576,21.576,0,0,0-17.546-19.347v-5.62a1.766,1.766,0,0,1,1.765-1.766H387.51a1.766,1.766,0,0,1,1.766,1.766,5.3,5.3,0,0,0,5.3,5.3h7.061a1.766,1.766,0,0,1,1.765,1.766V352.9a1.766,1.766,0,0,0,3.531,0V326.418a5.3,5.3,0,0,0-5.3-5.3h-7.061a1.765,1.765,0,0,1-1.765-1.765,5.3,5.3,0,0,0-5.3-5.3H355.736a5.3,5.3,0,0,0-5.3,5.3v5.313H350.4a21.154,21.154,0,0,0-21.144,21.165Z"/><path class="b" d="M452.044,361.779a4.69,4.69,0,0,0-4.506,2.709,4.243,4.243,0,0,0-.083.636,6.2,6.2,0,0,0-3.123.3H444.3a3.963,3.963,0,0,0-2.045,1.99,4.389,4.389,0,0,0-.194.884,4.534,4.534,0,0,0-1.52-.332,4.228,4.228,0,0,0-3.565,2.211c-1.6-2-3.2-4.009-4.809-6a3.43,3.43,0,0,0-2.985-1.106,5.321,5.321,0,0,0-4.118,3.289,4.142,4.142,0,0,0,.774,3.455c2.155,3.254,4.5,6.638,6.743,9.922v6.8a7.053,7.053,0,0,0,7.03,7.075h7.73l4.836,11.3a1.815,1.815,0,0,0,1.63,1.078h4.423a1.769,1.769,0,0,0,0-3.538H455l-4.284-9.949c4.7-3.1,8.857-5.622,13.736-8.872l7.932,7.213v.995l-9.894,7.407a1.769,1.769,0,0,0,2.1,2.847l10.613-7.96a1.8,1.8,0,0,0,.718-1.409V390.08a1.792,1.792,0,0,0-.58-1.326l-9.2-8.347a5.288,5.288,0,0,0-1.243-3.869c-.723-.851-1.616-2.064-2.57-3.4a1.773,1.773,0,0,0-2.875,2.074c.973,1.366,1.887,2.619,2.737,3.62.568.669.5,1,.415,1.383a1.867,1.867,0,0,1-.194.5c-5.059,3.367-9.384,5.984-14.483,9.367h-8.264a3.272,3.272,0,0,1-3.538-2.983,3.2,3.2,0,0,1,0-.554v-1.631l1.189,1.741a1.779,1.779,0,1,0,2.93-2.017h0c-3.87-5.591-7.646-11.288-11.553-16.832-.322-.436-.219-.475-.221-.469a1.738,1.738,0,0,1,1.133-.718l6.91,8.65a1.769,1.769,0,0,0,3.15-1.244,5.157,5.157,0,0,1,.248-2.045c.2-.46.1-.47.636-.47a.987.987,0,0,1,.968.415c.508.6.858,1.139,1.243,1.631a1.769,1.769,0,0,0,2.847-2.1h0a3.407,3.407,0,0,1-.3-1.631,2.536,2.536,0,0,1,.166-.912c.079-.17.072-.155.166-.194a2.048,2.048,0,0,1,2.46.442,1.769,1.769,0,0,0,2.93-1.906,2.712,2.712,0,0,1-.165-1.521c.088-.234.122-.361.995-.386a.338.338,0,0,1,.138.056,8.034,8.034,0,0,1,1.022.911,33.5,33.5,0,0,1,2.9,3.565,1.772,1.772,0,1,0,2.874-2.073h0a36.294,36.294,0,0,0-3.233-3.98,10.751,10.751,0,0,0-1.548-1.326A3.105,3.105,0,0,0,452.044,361.779Z"/><path class="b" d="M311.724,379.323l-5.309-3.746a2.706,2.706,0,0,0-2.117-.554,2.31,2.31,0,0,0-1.368.847L301.5,377.3a1.15,1.15,0,0,1-.619.326c-1.563-.749-7.589-6.775-8.338-8.306a1.143,1.143,0,0,1,.326-.619l1.433-1.433a2.321,2.321,0,0,0,.847-1.368,2.711,2.711,0,0,0-.554-2.118l-3.746-5.342a2.275,2.275,0,0,0-1.629-1.14,2.524,2.524,0,0,0-2.247,1.01,9.514,9.514,0,0,0-2.476,4.43c-1.205,4.658.978,9.283,3.03,12.345a32.443,32.443,0,0,0,3.452,4.137,30.633,30.633,0,0,0,3.714,3.159c4.071,2.8,7.459,3.616,10,3.616a10.4,10.4,0,0,0,2.639-.326,9.326,9.326,0,0,0,4.528-2.508,2.523,2.523,0,0,0,1.009-2.247A2.2,2.2,0,0,0,311.724,379.323Zm-1.759,2.052c-.2.228-4.755,5.114-13.778-1.173a24.7,24.7,0,0,1-3.355-2.834,27.216,27.216,0,0,1-3.127-3.778c-5.9-8.795-1.14-13.225-.912-13.42l.1-.065,3.583,5.146c.032.033.032.033.032.065l-1.5,1.5a3.785,3.785,0,0,0-1.108,2.54c0,.424-.032,1.564,4.626,6.222,4.69,4.723,5.8,4.69,6.254,4.658a3.72,3.72,0,0,0,2.54-1.108l1.5-1.5c.032,0,.032.032.065.065l5.146,3.616Z"/><path class="b" d="M284.007,321.129v18a1.423,1.423,0,0,0,1.423,1.423h17.415l8.537,8.537a1.423,1.423,0,0,0,2.433-1.01v-7.555h5.762A1.423,1.423,0,0,0,321,339.1v-17.97a1.423,1.423,0,0,0-1.423-1.423H285.43A1.423,1.423,0,0,0,284.007,321.129Zm2.846,1.422h31.3v15.125h-5.762a1.423,1.423,0,0,0-1.423,1.423v5.549l-6.559-6.559a1.42,1.42,0,0,0-1.01-.413H286.853Z"/></g></svg>